{
  "accessors": [
    {
      "bufferView": 2,
      "componentType": 5126,
      "count": 86,
      "max": [
        0.6435750126838684,
        0.39314699172973633,
        2.8994979858398438
      ],
      "min": [
        0.04309200122952461,
        -0.22277900576591492,
        2.176569938659668
      ],
      "type": "VEC3"
    },
    {
      "bufferView": 2,
      "byteOffset": 1032,
      "componentType": 5126,
      "count": 86,
      "max": [
        0.9749281406402588,
        1.0,
        1.0
      ],
      "min": [
        -0.9749281406402588,
        -1.0,
        -1.0
      ],
      "type": "VEC3"
    },
    {
      "bufferView": 3,
      "componentType": 5126,
      "count": 86,
      "max": [
        0.8196161985397339,
        0.9989761114120483,
        0.998745858669281,
        1.0
      ],
      "min": [
        -0.4858114421367645,
        -0.10452982783317566,
        -0.9987457394599915,
        1.0
      ],
      "type": "VEC4"
    },
    {
      "bufferView": 1,
      "componentType": 5126,
      "count": 86,
      "max": [
        0.5062450170516968,
        0.9998999834060669
      ],
      "min": [
        9.999999747378752e-05,
        9.999999747378752e-05
      ],
      "type": "VEC2"
    },
    {
      "bufferView": 0,
      "componentType": 5125,
      "count": 420,
      "type": "SCALAR"
    },
    {
      "bufferView": 2,
      "byteOffset": 2064,
      "componentType": 5126,
      "count": 86,
      "max": [
        1.2728279829025269,
        0.38515999913215637,
        2.8775930404663086
      ],
      "min": [
        0.530443012714386,
        -0.3860569894313812,
        1.984686017036438
      ],
      "type": "VEC3"
    },
    {
      "bufferView": 2,
      "byteOffset": 3096,
      "componentType": 5126,
      "count": 86,
      "max": [
        0.9626026153564453,
        0.9999876618385315,
        0.9864106178283691
      ],
      "min": [
        -0.962602972984314,
        -0.9999876618385315,
        -0.9864106178283691
      ],
      "type": "VEC3"
    },
    {
      "bufferView": 3,
      "byteOffset": 1376,
      "componentType": 5126,
      "count": 86,
      "max": [
        0.8783437609672546,
        0.9991704821586609,
        0.9933986663818359,
        1.0
      ],
      "min": [
        -0.5796352028846741,
        -0.10744040459394455,
        -0.9927319884300232,
        1.0
      ],
      "type": "VEC4"
    },
    {
      "bufferView": 1,
      "byteOffset": 688,
      "componentType": 5126,
      "count": 86,
      "max": [
        0.5062450170516968,
        0.9998999834060669
      ],
      "min": [
        9.999999747378752e-05,
        9.999999747378752e-05
      ],
      "type": "VEC2"
    },
    {
      "bufferView": 0,
      "byteOffset": 1680,
      "componentType": 5125,
      "count": 420,
      "type": "SCALAR"
    },
    {
      "bufferView": 2,
      "byteOffset": 4128,
      "componentType": 5126,
      "count": 86,
      "max": [
        0.941461980342865,
        0.8598589897155762,
        2.964155912399292
      ],
      "min": [
        0.4064590036869049,
        0.31109699606895447,
        2.3200600147247314
      ],
      "type": "VEC3"
    },
    {
      "bufferView": 2,
      "byteOffset": 5160,
      "componentType": 5126,
      "count": 86,
      "max": [
        0.9749283790588379,
        1.0,
        1.0
      ],
      "min": [
        -0.9749279022216797,
        -1.0,
        -1.0
      ],
      "type": "VEC3"
    },
    {
      "bufferView": 3,
      "byteOffset": 2752,
      "componentType": 5126,
      "count": 86,
      "max": [
        0.8196167945861816,
        0.9989761114120483,
        0.9987459182739258,
        1.0
      ],
      "min": [
        -0.4858112335205078,
        -0.10453055053949356,
        -0.998745858669281,
        1.0
      ],
      "type": "VEC4"
    },
    {
      "bufferView": 1,
      "byteOffset": 1376,
      "componentType": 5126,
      "count": 86,
      "max": [
        0.5062450170516968,
        0.9998999834060669
      ],
      "min": [
        9.999999747378752e-05,
        9.999999747378752e-05
      ],
      "type": "VEC2"
    },
    {
      "bufferView": 0,
      "byteOffset": 3360,
      "componentType": 5125,
      "count": 420,
      "type": "SCALAR"
    },
    {
      "bufferView": 2,
      "byteOffset": 6192,
      "componentType": 5126,
      "count": 3204,
      "max": [
        0.0797249972820282,
        -0.22333399951457977,
        1.526440978050232
      ],
      "min": [
        -0.0797249972820282,
        -0.26549699902534485,
        1.484241008758545
      ],
      "type": "VEC3"
    },
    {
      "bufferView": 2,
      "byteOffset": 44640,
      "componentType": 5126,
      "count": 3204,
      "max": [
        0.999642014503479,
        0.9993464946746826,
        0.9998826384544373
      ],
      "min": [
        -0.999642014503479,
        -0.9993434548377991,
        -0.9998819828033447
      ],
      "type": "VEC3"
    },
    {
      "bufferView": 3,
      "byteOffset": 4128,
      "componentType": 5126,
      "count": 3204,
      "max": [
        0.8168104290962219,
        0.9962716698646545,
        0.9826982617378235,
        1.0
      ],
      "min": [
        -0.9236913919448853,
        -0.9983552098274231,
        -0.1292399764060974,
        1.0
      ],
      "type": "VEC4"
    },
    {
      "bufferView": 1,
      "byteOffset": 2064,
      "componentType": 5126,
      "count": 3204,
      "max": [
        0.9998040199279785,
        0.9998049736022949
      ],
      "min": [
        0.00019500000053085387,
        0.00019500000053085387
      ],
      "type": "VEC2"
    },
    {
      "bufferView": 0,
      "byteOffset": 5040,
      "componentType": 5125,
      "count": 18432,
      "type": "SCALAR"
    },
    {
      "bufferView": 2,
      "byteOffset": 83088,
      "componentType": 5126,
      "count": 978,
      "max": [
        0.3003459870815277,
        0.02891400083899498,
        1.7127820253372192
      ],
      "min": [
        -0.3003459870815277,
        -0.1992579996585846,
        1.5045709609985352
      ],
      "type": "VEC3"
    },
    {
      "bufferView": 2,
      "byteOffset": 94824,
      "componentType": 5126,
      "count": 978,
      "max": [
        0.9958397746086121,
        0.9965649843215942,
        0.9971638917922974
      ],
      "min": [
        -0.9958397746086121,
        -0.9940629005432129,
        -0.9993612170219421
      ],
      "type": "VEC3"
    },
    {
      "bufferView": 3,
      "byteOffset": 55392,
      "componentType": 5126,
      "count": 978,
      "max": [
        0.9977004528045654,
        0.9996567964553833,
        0.974931001663208,
        1.0
      ],
      "min": [
        -0.773741602897644,
        -0.9997051954269409,
        -0.9923651218414307,
        1.0
      ],
      "type": "VEC4"
    },
    {
      "bufferView": 1,
      "byteOffset": 27696,
      "componentType": 5126,
      "count": 978,
      "max": [
        0.9997850060462952,
        0.9118959903717041
      ],
      "min": [
        0.00021499999274965376,
        0.00021499999274965376
      ],
      "type": "VEC2"
    },
    {
      "bufferView": 0,
      "byteOffset": 78768,
      "componentType": 5125,
      "count": 5100,
      "type": "SCALAR"
    },
    {
      "bufferView": 2,
      "byteOffset": 106560,
      "componentType": 5126,
      "count": 1299,
      "max": [
        0.15416400134563446,
        0.1490979939699173,
        1.7444080114364624
      ],
      "min": [
        -0.15416400134563446,
        -0.3069539964199066,
        1.3030840158462524
      ],
      "type": "VEC3"
    },
    {
      "bufferView": 2,
      "byteOffset": 122148,
      "componentType": 5126,
      "count": 1299,
      "max": [
        0.9999511241912842,
        0.9907125234603882,
        0.9998906254768372
      ],
      "min": [
        -0.9999511241912842,
        -0.9997161030769348,
        -0.9999575018882751
      ],
      "type": "VEC3"
    },
    {
      "bufferView": 3,
      "byteOffset": 71040,
      "componentType": 5126,
      "count": 1299,
      "max": [
        0.9996511936187744,
        0.8260021209716797,
        0.03186963498592377,
        1.0
      ],
      "min": [
        -0.9996582269668579,
        -0.8151612877845764,
        -0.99971604347229,
        1.0
      ],
      "type": "VEC4"
    },
    {
      "bufferView": 1,
      "byteOffset": 35520,
      "componentType": 5126,
      "count": 1299,
      "max": [
        0.5745919942855835,
        0.9999240040779114
      ],
      "min": [
        7.599999662488699e-05,
        7.599999662488699e-05
      ],
      "type": "VEC2"
    },
    {
      "bufferView": 0,
      "byteOffset": 99168,
      "componentType": 5125,
      "count": 7524,
      "type": "SCALAR"
    },
    {
      "bufferView": 2,
      "byteOffset": 137736,
      "componentType": 5126,
      "count": 624,
      "max": [
        0.4751259982585907,
        2.6864519119262695,
        0.6398389935493469
      ],
      "min": [
        -0.4311099946498871,
        1.6072169542312622,
        0.5402200222015381
      ],
      "type": "VEC3"
    },
    {
      "bufferView": 2,
      "byteOffset": 145224,
      "componentType": 5126,
      "count": 624,
      "max": [
        1.0,
        0.999509334564209,
        0.9999798536300659
      ],
      "min": [
        -1.0,
        -0.999509334564209,
        -0.9997274875640869
      ],
      "type": "VEC3"
    },
    {
      "bufferView": 3,
      "byteOffset": 91824,
      "componentType": 5126,
      "count": 624,
      "max": [
        1.0,
        0.9999921917915344,
        0.9997439980506897,
        1.0
      ],
      "min": [
        -0.5805907249450684,
        -0.8270487785339355,
        -0.9997439384460449,
        1.0
      ],
      "type": "VEC4"
    },
    {
      "bufferView": 1,
      "byteOffset": 45912,
      "componentType": 5126,
      "count": 624,
      "max": [
        0.8519790172576904,
        0.9998289942741394
      ],
      "min": [
        0.00017100000695791095,
        0.00017100000695791095
      ],
      "type": "VEC2"
    },
    {
      "bufferView": 0,
      "byteOffset": 129264,
      "componentType": 5125,
      "count": 3048,
      "type": "SCALAR"
    },
    {
      "bufferView": 2,
      "byteOffset": 152712,
      "componentType": 5126,
      "count": 1602,
      "max": [
        0.036428000777959824,
        -0.2511740028858185,
        1.5267829895019531
      ],
      "min": [
        -0.036428000777959824,
        -0.324057012796402,
        1.4539990425109863
      ],
      "type": "VEC3"
    },
    {
      "bufferView": 2,
      "byteOffset": 171936,
      "componentType": 5126,
      "count": 1602,
      "max": [
        0.9988548755645752,
        0.9995700120925903,
        0.997847855091095
      ],
      "min": [
        -0.9988553524017334,
        -0.9995707869529724,
        -0.997841477394104
      ],
      "type": "VEC3"
    },
    {
      "bufferView": 3,
      "byteOffset": 101808,
      "componentType": 5126,
      "count": 1602,
      "max": [
        0.9964852333068848,
        0.9994832873344421,
        0.63888019323349,
        1.0
      ],
      "min": [
        -0.09340265393257141,
        -0.9956175088882446,
        -0.8954527378082275,
        1.0
      ],
      "type": "VEC4"
    },
    {
      "bufferView": 1,
      "byteOffset": 50904,
      "componentType": 5126,
      "count": 1602,
      "max": [
        0.9998999834060669,
        0.49990299344062805
      ],
      "min": [
        9.999999747378752e-05,
        9.999999747378752e-05
      ],
      "type": "VEC2"
    },
    {
      "bufferView": 0,
      "byteOffset": 141456,
      "componentType": 5125,
      "count": 9216,
      "type": "SCALAR"
    },
    {
      "bufferView": 2,
      "byteOffset": 191160,
      "componentType": 5126,
      "count": 540,
      "max": [
        0.8327680230140686,
        0.6039739847183228,
        2.378330945968628
      ],
      "min": [
        0.35129401087760925,
        -0.11013499647378922,
        1.806993007659912
      ],
      "type": "VEC3"
    },
    {
      "bufferView": 2,
      "byteOffset": 197640,
      "componentType": 5126,
      "count": 540,
      "max": [
        0.9985902309417725,
        0.9867953658103943,
        0.9851861000061035
      ],
      "min": [
        -0.9965638518333435,
        -0.98760586977005,
        -0.9463016390800476
      ],
      "type": "VEC3"
    },
    {
      "bufferView": 3,
      "byteOffset": 127440,
      "componentType": 5126,
      "count": 540,
      "max": [
        0.9938592910766602,
        0.9737645387649536,
        0.9106632471084595,
        1.0
      ],
      "min": [
        -0.9976627826690674,
        -0.9997255206108093,
        -0.9459996223449707,
        1.0
      ],
      "type": "VEC4"
    },
    {
      "bufferView": 1,
      "byteOffset": 63720,
      "componentType": 5126,
      "count": 540,
      "max": [
        1.0,
        1.0
      ],
      "min": [
        0.0,
        0.0
      ],
      "type": "VEC2"
    },
    {
      "bufferView": 0,
      "byteOffset": 178320,
      "componentType": 5125,
      "count": 1728,
      "type": "SCALAR"
    },
    {
      "bufferView": 2,
      "byteOffset": 204120,
      "componentType": 5126,
      "count": 56,
      "max": [
        0.35839200019836426,
        -1.6994459629058838,
        0.4318009912967682
      ],
      "min": [
        -0.3697499930858612,
        -1.743569016456604,
        0.25849300622940063
      ],
      "type": "VEC3"
    },
    {
      "bufferView": 2,
      "byteOffset": 204792,
      "componentType": 5126,
      "count": 56,
      "max": [
        1.0,
        1.0,
        1.0
      ],
      "min": [
        -1.0,
        -1.0,
        -1.0
      ],
      "type": "VEC3"
    },
    {
      "bufferView": 3,
      "byteOffset": 136080,
      "componentType": 5126,
      "count": 56,
      "max": [
        1.0,
        1.0,
        1.3901418242312502e-05,
        1.0
      ],
      "min": [
        -1.0,
        -1.0,
        -1.0,
        -1.0
      ],
      "type": "VEC4"
    },
    {
      "bufferView": 1,
      "byteOffset": 68040,
      "componentType": 5126,
      "count": 56,
      "max": [
        1.1746519804000854,
        0.8820610046386719
      ],
      "min": [
        0.07377400249242783,
        0.031874001026153564
      ],
      "type": "VEC2"
    },
    {
      "bufferView": 0,
      "byteOffset": 185232,
      "componentType": 5125,
      "count": 108,
      "type": "SCALAR"
    },
    {
      "bufferView": 2,
      "byteOffset": 205464,
      "componentType": 5126,
      "count": 134,
      "max": [
        0.8604369759559631,
        1.8975750207901,
        0.43933600187301636
      ],
      "min": [
        -0.8604369759559631,
        1.7014679908752441,
        0.18987900018692017
      ],
      "type": "VEC3"
    },
    {
      "bufferView": 2,
      "byteOffset": 207072,
      "componentType": 5126,
      "count": 134,
      "max": [
        0.8876059055328369,
        0.9854387640953064,
        0.8931137323379517
      ],
      "min": [
        -0.8876059055328369,
        -0.9861807823181152,
        -0.846732497215271
      ],
      "type": "VEC3"
    },
    {
      "bufferView": 3,
      "byteOffset": 136976,
      "componentType": 5126,
      "count": 134,
      "max": [
        1.0,
        0.9031369686126709,
        0.9438418745994568,
        1.0
      ],
      "min": [
        -0.3492774963378906,
        -0.9031288623809814,
        -0.9438440203666687,
        1.0
      ],
      "type": "VEC4"
    },
    {
      "bufferView": 1,
      "byteOffset": 68488,
      "componentType": 5126,
      "count": 134,
      "max": [
        0.9999269843101501,
        0.270006000995636
      ],
      "min": [
        7.300000288523734e-05,
        7.300000288523734e-05
      ],
      "type": "VEC2"
    },
    {
      "bufferView": 0,
      "byteOffset": 185664,
      "componentType": 5125,
      "count": 624,
      "type": "SCALAR"
    },
    {
      "bufferView": 2,
      "byteOffset": 208680,
      "componentType": 5126,
      "count": 276,
      "max": [
        0.7624850273132324,
        1.8838249444961548,
        0.7260000109672546
      ],
      "min": [
        -0.7624850273132324,
        1.748196005821228,
        0.4345870018005371
      ],
      "type": "VEC3"
    },
    {
      "bufferView": 2,
      "byteOffset": 211992,
      "componentType": 5126,
      "count": 276,
      "max": [
        0.990074634552002,
        0.9962565302848816,
        0.9977126121520996
      ],
      "min": [
        -0.990074634552002,
        -0.9959757328033447,
        -0.9311832189559937
      ],
      "type": "VEC3"
    },
    {
      "bufferView": 3,
      "byteOffset": 139120,
      "componentType": 5126,
      "count": 276,
      "max": [
        0.8683545589447021,
        0.9991094470024109,
        0.9995840787887573,
        1.0
      ],
      "min": [
        -0.907285749912262,
        -0.9974964261054993,
        -0.3620598018169403,
        1.0
      ],
      "type": "VEC4"
    },
    {
      "bufferView": 1,
      "byteOffset": 69560,
      "componentType": 5126,
      "count": 276,
      "max": [
        0.996878981590271,
        0.9998040199279785
      ],
      "min": [
        0.000195999993593432,
        0.000195999993593432
      ],
      "type": "VEC2"
    },
    {
      "bufferView": 0,
      "byteOffset": 188160,
      "componentType": 5125,
      "count": 1440,
      "type": "SCALAR"
    },
    {
      "bufferView": 2,
      "byteOffset": 215304,
      "componentType": 5126,
      "count": 8,
      "max": [
        0.8064690232276917,
        1.4035170078277588,
        1.010882019996643
      ],
      "min": [
        -0.8064690232276917,
        0.6348620057106018,
        0.2672480046749115
      ],
      "type": "VEC3"
    },
    {
      "bufferView": 2,
      "byteOffset": 215400,
      "componentType": 5126,
      "count": 8,
      "max": [
        0.0,
        -0.0,
        1.0
      ],
      "min": [
        0.0,
        -1.0,
        0.0
      ],
      "type": "VEC3"
    },
    {
      "bufferView": 3,
      "byteOffset": 143536,
      "componentType": 5126,
      "count": 8,
      "max": [
        1.0,
        9.836660410655895e-07,
        9.836669505602913e-07,
        1.0
      ],
      "min": [
        1.0,
        0.0,
        0.0,
        1.0
      ],
      "type": "VEC4"
    },
    {
      "bufferView": 1,
      "byteOffset": 71768,
      "componentType": 5126,
      "count": 8,
      "max": [
        0.9999030232429504,
        0.9375140070915222
      ],
      "min": [
        9.699999645818025e-05,
        9.699999645818025e-05
      ],
      "type": "VEC2"
    },
    {
      "bufferView": 0,
      "byteOffset": 193920,
      "componentType": 5125,
      "count": 12,
      "type": "SCALAR"
    },
    {
      "bufferView": 2,
      "byteOffset": 215496,
      "componentType": 5126,
      "count": 502,
      "max": [
        0.610168993473053,
        1.897778034210205,
        1.1138689517974854
      ],
      "min": [
        -0.610168993473053,
        1.4742900133132935,
        0.7089260220527649
      ],
      "type": "VEC3"
    },
    {
      "bufferView": 2,
      "byteOffset": 221520,
      "componentType": 5126,
      "count": 502,
      "max": [
        0.9980221390724182,
        0.9930697679519653,
        0.9940803647041321
      ],
      "min": [
        -0.9980221390724182,
        -0.9769638776779175,
        -0.9698022603988647
      ],
      "type": "VEC3"
    },
    {
      "bufferView": 3,
      "byteOffset": 143664,
      "componentType": 5126,
      "count": 502,
      "max": [
        1.0,
        0.9335721135139465,
        0.9873867630958557,
        1.0
      ],
      "min": [
        -0.2986614406108856,
        -0.9291680455207825,
        -0.9906553030014038,
        1.0
      ],
      "type": "VEC4"
    },
    {
      "bufferView": 1,
      "byteOffset": 71832,
      "componentType": 5126,
      "count": 502,
      "max": [
        0.999862015247345,
        0.9690560102462769
      ],
      "min": [
        0.00013800000306218863,
        0.00013800000306218863
      ],
      "type": "VEC2"
    },
    {
      "bufferView": 0,
      "byteOffset": 193968,
      "componentType": 5125,
      "count": 2736,
      "type": "SCALAR"
    },
    {
      "bufferView": 2,
      "byteOffset": 227544,
      "componentType": 5126,
      "count": 653,
      "max": [
        0.9731379747390747,
        0.6610159873962402,
        0.7801259756088257
      ],
      "min": [
        -0.9731379747390747,
        -1.086887001991272,
        0.18522900342941284
      ],
      "type": "VEC3"
    },
    {
      "bufferView": 2,
      "byteOffset": 235380,
      "componentType": 5126,
      "count": 653,
      "max": [
        0.9632269740104675,
        0.9996722340583801,
        1.0
      ],
      "min": [
        -0.9632269740104675,
        -0.18563708662986755,
        -0.9726263284683228
      ],
      "type": "VEC3"
    },
    {
      "bufferView": 3,
      "byteOffset": 151696,
      "componentType": 5126,
      "count": 653,
      "max": [
        0.8633936047554016,
        0.9999997019767761,
        0.1856369972229004,
        1.0
      ],
      "min": [
        -0.8631176948547363,
        -0.9726429581642151,
        -0.9999661445617676,
        1.0
      ],
      "type": "VEC4"
    },
    {
      "bufferView": 1,
      "byteOffset": 75848,
      "componentType": 5126,
      "count": 653,
      "max": [
        0.9999250173568726,
        0.5670350193977356
      ],
      "min": [
        7.500000356230885e-05,
        7.500000356230885e-05
      ],
      "type": "VEC2"
    },
    {
      "bufferView": 0,
      "byteOffset": 204912,
      "componentType": 5125,
      "count": 3072,
      "type": "SCALAR"
    },
    {
      "bufferView": 2,
      "byteOffset": 243216,
      "componentType": 5126,
      "count": 5568,
      "max": [
        1.0242340564727783,
        1.9141470193862915,
        1.9498590230941772
      ],
      "min": [
        -1.0242340564727783,
        -0.7542359828948975,
        0.08192399889230728
      ],
      "type": "VEC3"
    },
    {
      "bufferView": 2,
      "byteOffset": 310032,
      "componentType": 5126,
      "count": 5568,
      "max": [
        0.9996170997619629,
        0.9998432397842407,
        0.9999987483024597
      ],
      "min": [
        -0.9996170997619629,
        -0.9998687505722046,
        -0.999997615814209
      ],
      "type": "VEC3"
    },
    {
      "bufferView": 3,
      "byteOffset": 162144,
      "componentType": 5126,
      "count": 5568,
      "max": [
        1.0,
        0.9993403553962708,
        0.9995452761650085,
        1.0
      ],
      "min": [
        -0.9998756647109985,
        -0.9993402361869812,
        -0.998641312122345,
        1.0
      ],
      "type": "VEC4"
    },
    {
      "bufferView": 1,
      "byteOffset": 81072,
      "componentType": 5126,
      "count": 5568,
      "max": [
        0.9998210072517395,
        0.7925180196762085
      ],
      "min": [
        0.00017899999511428177,
        0.00017899999511428177
      ],
      "type": "VEC2"
    },
    {
      "bufferView": 0,
      "byteOffset": 217200,
      "componentType": 5125,
      "count": 29712,
      "type": "SCALAR"
    },
    {
      "bufferView": 2,
      "byteOffset": 376848,
      "componentType": 5126,
      "count": 885,
      "max": [
        0.8677859902381897,
        -0.6463289856910706,
        1.1438369750976563
      ],
      "min": [
        -0.8677859902381897,
        -1.7763710021972656,
        0.8102610111236572
      ],
      "type": "VEC3"
    },
    {
      "bufferView": 2,
      "byteOffset": 387468,
      "componentType": 5126,
      "count": 885,
      "max": [
        0.9715670943260193,
        0.9771436452865601,
        0.9997068643569946
      ],
      "min": [
        -0.9715670943260193,
        -0.9406659007072449,
        -0.9997144937515259
      ],
      "type": "VEC3"
    },
    {
      "bufferView": 3,
      "byteOffset": 251232,
      "componentType": 5126,
      "count": 885,
      "max": [
        1.0,
        0.9050668478012085,
        0.9755493998527527,
        1.0
      ],
      "min": [
        -0.42790019512176514,
        -0.9050706028938293,
        -0.9755529761314392,
        1.0
      ],
      "type": "VEC4"
    },
    {
      "bufferView": 1,
      "byteOffset": 125616,
      "componentType": 5126,
      "count": 885,
      "max": [
        0.9998509883880615,
        0.7944269776344299
      ],
      "min": [
        0.00014899999951012433,
        0.00014899999951012433
      ],
      "type": "VEC2"
    },
    {
      "bufferView": 0,
      "byteOffset": 336048,
      "componentType": 5125,
      "count": 4560,
      "type": "SCALAR"
    },
    {
      "bufferView": 2,
      "byteOffset": 398088,
      "componentType": 5126,
      "count": 2344,
      "max": [
        1.0926460027694702,
        -0.3116079866886139,
        1.110569953918457
      ],
      "min": [
        -1.0926460027694702,
        -1.7627220153808594,
        0.040821000933647156
      ],
      "type": "VEC3"
    },
    {
      "bufferView": 2,
      "byteOffset": 426216,
      "componentType": 5126,
      "count": 2344,
      "max": [
        0.9995145201683044,
        0.9999523758888245,
        0.9999197721481323
      ],
      "min": [
        -0.9995145201683044,
        -0.9999992251396179,
        -0.9998344779014587
      ],
      "type": "VEC3"
    },
    {
      "bufferView": 3,
      "byteOffset": 265392,
      "componentType": 5126,
      "count": 2344,
      "max": [
        1.0,
        0.9999316930770874,
        0.9977124929428101,
        1.0
      ],
      "min": [
        -0.9979206919670105,
        -0.9974545836448669,
        -0.9976795315742493,
        1.0
      ],
      "type": "VEC4"
    },
    {
      "bufferView": 1,
      "byteOffset": 132696,
      "componentType": 5126,
      "count": 2344,
      "max": [
        0.999862015247345,
        0.5881770253181458
      ],
      "min": [
        0.00013800000306218863,
        0.00013800000306218863
      ],
      "type": "VEC2"
    },
    {
      "bufferView": 0,
      "byteOffset": 354288,
      "componentType": 5125,
      "count": 12576,
      "type": "SCALAR"
    },
    {
      "bufferView": 2,
      "byteOffset": 454344,
      "componentType": 5126,
      "count": 684,
      "max": [
        0.48323899507522583,
        0.6846989989280701,
        1.4854580163955688
      ],
      "min": [
        -0.48323899507522583,
        -0.3038710057735443,
        0.1995600014925003
      ],
      "type": "VEC3"
    },
    {
      "bufferView": 2,
      "byteOffset": 462552,
      "componentType": 5126,
      "count": 684,
      "max": [
        0.999971330165863,
        1.0,
        0.999965250492096
      ],
      "min": [
        -0.999971330165863,
        -0.9999970197677612,
        -1.0
      ],
      "type": "VEC3"
    },
    {
      "bufferView": 3,
      "byteOffset": 302896,
      "componentType": 5126,
      "count": 684,
      "max": [
        0.9999994039535522,
        0.9995447397232056,
        0.9999290704727173,
        1.0
      ],
      "min": [
        -0.9999997019767761,
        -0.999491810798645,
        -0.9999660849571228,
        1.0
      ],
      "type": "VEC4"
    },
    {
      "bufferView": 1,
      "byteOffset": 151448,
      "componentType": 5126,
      "count": 684,
      "max": [
        0.9895200133323669,
        0.9998059868812561
      ],
      "min": [
        0.0001939999929163605,
        0.0001939999929163605
      ],
      "type": "VEC2"
    },
    {
      "bufferView": 0,
      "byteOffset": 404592,
      "componentType": 5125,
      "count": 3648,
      "type": "SCALAR"
    },
    {
      "bufferView": 2,
      "byteOffset": 470760,
      "componentType": 5126,
      "count": 768,
      "max": [
        0.3003700077533722,
        0.14423799514770508,
        1.6977250576019287
      ],
      "min": [
        -0.3003700077533722,
        -0.29286500811576843,
        1.2648969888687134
      ],
      "type": "VEC3"
    },
    {
      "bufferView": 2,
      "byteOffset": 479976,
      "componentType": 5126,
      "count": 768,
      "max": [
        0.9997386336326599,
        0.9970663785934448,
        0.9984682202339172
      ],
      "min": [
        -0.999738872051239,
        -0.9952643513679504,
        -0.9352196455001831
      ],
      "type": "VEC3"
    },
    {
      "bufferView": 3,
      "byteOffset": 313840,
      "componentType": 5126,
      "count": 768,
      "max": [
        1.0,
        0.9928340315818787,
        0.9244295954704285,
        1.0
      ],
      "min": [
        -0.03433368355035782,
        -0.9927172660827637,
        -0.924820601940155,
        -1.0
      ],
      "type": "VEC4"
    },
    {
      "bufferView": 1,
      "byteOffset": 156920,
      "componentType": 5126,
      "count": 768,
      "max": [
        0.5194270014762878,
        0.9998990297317505
      ],
      "min": [
        0.00010099999781232327,
        0.00010099999781232327
      ],
      "type": "VEC2"
    },
    {
      "bufferView": 0,
      "byteOffset": 419184,
      "componentType": 5125,
      "count": 3840,
      "type": "SCALAR"
    },
    {
      "bufferView": 2,
      "byteOffset": 489192,
      "componentType": 5126,
      "count": 4882,
      "max": [
        0.591808021068573,
        0.10811799764633179,
        1.5223979949951172
      ],
      "min": [
        -0.591808021068573,
        -0.18694399297237396,
        1.2057160139083862
      ],
      "type": "VEC3"
    },
    {
      "bufferView": 2,
      "byteOffset": 547776,
      "componentType": 5126,
      "count": 4882,
      "max": [
        0.99958336353302,
        0.9626492261886597,
        0.9994274973869324
      ],
      "min": [
        -0.99958336353302,
        -0.9992848634719849,
        -0.9961496591567993
      ],
      "type": "VEC3"
    },
    {
      "bufferView": 3,
      "byteOffset": 326128,
      "componentType": 5126,
      "count": 4882,
      "max": [
        0.9998180270195007,
        0.9282110333442688,
        0.9999932646751404,
        1.0
      ],
      "min": [
        -0.9998180270195007,
        -0.9875459671020508,
        -0.9998142123222351,
        -1.0
      ],
      "type": "VEC4"
    },
    {
      "bufferView": 1,
      "byteOffset": 163064,
      "componentType": 5126,
      "count": 4882,
      "max": [
        0.9999430179595947,
        0.32006800174713135
      ],
      "min": [
        5.700000110664405e-05,
        5.700000110664405e-05
      ],
      "type": "VEC2"
    },
    {
      "bufferView": 0,
      "byteOffset": 434544,
      "componentType": 5125,
      "count": 24192,
      "type": "SCALAR"
    },
    {
      "bufferView": 2,
      "byteOffset": 606360,
      "componentType": 5126,
      "count": 1376,
      "max": [
        1.0222439765930176,
        0.36355000734329224,
        1.8427059650421143
      ],
      "min": [
        -1.0222439765930176,
        -0.5498809814453125,
        0.28111499547958374
      ],
      "type": "VEC3"
    },
    {
      "bufferView": 2,
      "byteOffset": 622872,
      "componentType": 5126,
      "count": 1376,
      "max": [
        0.9998618960380554,
        0.9987292289733887,
        0.9997357726097107
      ],
      "min": [
        -0.9998618960380554,
        -0.9999474883079529,
        -0.9822993278503418
      ],
      "type": "VEC3"
    },
    {
      "bufferView": 3,
      "byteOffset": 404240,
      "componentType": 5126,
      "count": 1376,
      "max": [
        0.9982563853263855,
        0.6975986957550049,
        0.99941086769104,
        1.0
      ],
      "min": [
        -0.9981145262718201,
        -0.7586563229560852,
        -0.926477313041687,
        1.0
      ],
      "type": "VEC4"
    },
    {
      "bufferView": 1,
      "byteOffset": 202120,
      "componentType": 5126,
      "count": 1376,
      "max": [
        0.9998520016670227,
        0.8317369818687439
      ],
      "min": [
        0.00014800000644754618,
        0.00014800000644754618
      ],
      "type": "VEC2"
    },
    {
      "bufferView": 0,
      "byteOffset": 531312,
      "componentType": 5125,
      "count": 7296,
      "type": "SCALAR"
    },
    {
      "bufferView": 2,
      "byteOffset": 639384,
      "componentType": 5126,
      "count": 316,
      "max": [
        0.7354069948196411,
        -1.6001629829406738,
        0.8750150203704834
      ],
      "min": [
        -0.7354069948196411,
        -1.7272909879684448,
        0.5675519704818726
      ],
      "type": "VEC3"
    },
    {
      "bufferView": 2,
      "byteOffset": 643176,
      "componentType": 5126,
      "count": 316,
      "max": [
        0.9929068684577942,
        0.9987725019454956,
        0.9510026574134827
      ],
      "min": [
        -0.9929068684577942,
        -0.993864893913269,
        -0.9691055417060852
      ],
      "type": "VEC3"
    },
    {
      "bufferView": 3,
      "byteOffset": 426256,
      "componentType": 5126,
      "count": 316,
      "max": [
        0.9871544241905212,
        0.9944700598716736,
        0.9394865036010742,
        1.0
      ],
      "min": [
        -0.8793194890022278,
        -0.9970710873603821,
        -0.9872504472732544,
        1.0
      ],
      "type": "VEC4"
    },
    {
      "bufferView": 1,
      "byteOffset": 213128,
      "componentType": 5126,
      "count": 316,
      "max": [
        0.9998160004615784,
        0.9821209907531738
      ],
      "min": [
        0.00018400000408291817,
        0.00018400000408291817
      ],
      "type": "VEC2"
    },
    {
      "bufferView": 0,
      "byteOffset": 560496,
      "componentType": 5125,
      "count": 1656,
      "type": "SCALAR"
    },
    {
      "bufferView": 2,
      "byteOffset": 646968,
      "componentType": 5126,
      "count": 174,
      "max": [
        0.9572330117225647,
        -1.4685109853744507,
        0.4915179908275604
      ],
      "min": [
        -0.9572330117225647,
        -1.7071820497512817,
        0.1303980052471161
      ],
      "type": "VEC3"
    },
    {
      "bufferView": 2,
      "byteOffset": 649056,
      "componentType": 5126,
      "count": 174,
      "max": [
        0.881463885307312,
        0.9897478818893433,
        0.8895916938781738
      ],
      "min": [
        -0.881463885307312,
        -0.9888611435890198,
        -0.8954690098762512
      ],
      "type": "VEC3"
    },
    {
      "bufferView": 3,
      "byteOffset": 431312,
      "componentType": 5126,
      "count": 174,
      "max": [
        1.0,
        0.9972285628318787,
        0.8591383099555969,
        1.0
      ],
      "min": [
        -0.44341135025024414,
        -0.9972347021102905,
        -0.8591426610946655,
        1.0
      ],
      "type": "VEC4"
    },
    {
      "bufferView": 1,
      "byteOffset": 215656,
      "componentType": 5126,
      "count": 174,
      "max": [
        0.9999179840087891,
        0.3429279923439026
      ],
      "min": [
        8.199999865610152e-05,
        8.199999865610152e-05
      ],
      "type": "VEC2"
    },
    {
      "bufferView": 0,
      "byteOffset": 567120,
      "componentType": 5125,
      "count": 816,
      "type": "SCALAR"
    },
    {
      "bufferView": 2,
      "byteOffset": 651144,
      "componentType": 5126,
      "count": 430,
      "max": [
        0.9587159752845764,
        -1.2705409526824951,
        0.5202289819717407
      ],
      "min": [
        -0.9587159752845764,
        -1.7069900035858154,
        0.055208999663591385
      ],
      "type": "VEC3"
    },
    {
      "bufferView": 2,
      "byteOffset": 656304,
      "componentType": 5126,
      "count": 430,
      "max": [
        0.8817502856254578,
        0.9919373393058777,
        0.9186578989028931
      ],
      "min": [
        -0.8817502856254578,
        -0.9441472291946411,
        -0.9999556541442871
      ],
      "type": "VEC3"
    },
    {
      "bufferView": 3,
      "byteOffset": 434096,
      "componentType": 5126,
      "count": 430,
      "max": [
        1.0,
        0.9931462407112122,
        0.9245954155921936,
        1.0
      ],
      "min": [
        -0.5276169776916504,
        -0.9931458830833435,
        -0.9248144030570984,
        1.0
      ],
      "type": "VEC4"
    },
    {
      "bufferView": 1,
      "byteOffset": 217048,
      "componentType": 5126,
      "count": 430,
      "max": [
        0.9998909831047058,
        0.6038839817047119
      ],
      "min": [
        0.00010900000052060932,
        0.00010900000052060932
      ],
      "type": "VEC2"
    },
    {
      "bufferView": 0,
      "byteOffset": 570384,
      "componentType": 5125,
      "count": 2256,
      "type": "SCALAR"
    },
    {
      "bufferView": 2,
      "byteOffset": 661464,
      "componentType": 5126,
      "count": 1101,
      "max": [
        0.6382189989089966,
        0.544588029384613,
        1.5958399772644043
      ],
      "min": [
        -0.6382189989089966,
        -0.5864049792289734,
        0.7549700140953064
      ],
      "type": "VEC3"
    },
    {
      "bufferView": 2,
      "byteOffset": 674676,
      "componentType": 5126,
      "count": 1101,
      "max": [
        0.998989462852478,
        0.997988224029541,
        0.9932456016540527
      ],
      "min": [
        -0.998989462852478,
        -0.9999960064888,
        -0.9992967844009399
      ],
      "type": "VEC3"
    },
    {
      "bufferView": 3,
      "byteOffset": 440976,
      "componentType": 5126,
      "count": 1101,
      "max": [
        1.0,
        0.9936676621437073,
        0.999423086643219,
        1.0
      ],
      "min": [
        -0.9921261668205261,
        -0.9936672449111938,
        -0.9994226694107056,
        1.0
      ],
      "type": "VEC4"
    },
    {
      "bufferView": 1,
      "byteOffset": 220488,
      "componentType": 5126,
      "count": 1101,
      "max": [
        0.8944839835166931,
        0.999845027923584
      ],
      "min": [
        0.00015500000154133886,
        0.00015500000154133886
      ],
      "type": "VEC2"
    },
    {
      "bufferView": 0,
      "byteOffset": 579408,
      "componentType": 5125,
      "count": 5520,
      "type": "SCALAR"
    },
    {
      "bufferView": 2,
      "byteOffset": 687888,
      "componentType": 5126,
      "count": 492,
      "max": [
        0.4061200022697449,
        -0.40022701025009155,
        1.3113559484481812
      ],
      "min": [
        -0.4061200022697449,
        -0.6030210256576538,
        1.080649971961975
      ],
      "type": "VEC3"
    },
    {
      "bufferView": 2,
      "byteOffset": 693792,
      "componentType": 5126,
      "count": 492,
      "max": [
        0.9977192282676697,
        0.9879059791564941,
        0.9990816712379456
      ],
      "min": [
        -0.9977192282676697,
        -0.983922004699707,
        -0.9974839091300964
      ],
      "type": "VEC3"
    },
    {
      "bufferView": 3,
      "byteOffset": 458592,
      "componentType": 5126,
      "count": 492,
      "max": [
        0.9940264225006104,
        0.9984411001205444,
        0.9845439195632935,
        1.0
      ],
      "min": [
        -0.9366539120674133,
        -0.9984411001205444,
        -0.9845430850982666,
        1.0
      ],
      "type": "VEC4"
    },
    {
      "bufferView": 1,
      "byteOffset": 229296,
      "componentType": 5126,
      "count": 492,
      "max": [
        0.9998319745063782,
        0.7236019968986511
      ],
      "min": [
        0.00016799999866634607,
        0.00016799999866634607
      ],
      "type": "VEC2"
    },
    {
      "bufferView": 0,
      "byteOffset": 601488,
      "componentType": 5125,
      "count": 2496,
      "type": "SCALAR"
    },
    {
      "bufferView": 2,
      "byteOffset": 699696,
      "componentType": 5126,
      "count": 2390,
      "max": [
        0.5313670039176941,
        0.4999240040779114,
        1.1424200534820557
      ],
      "min": [
        -0.5313670039176941,
        -0.6499390006065369,
        0.35627099871635437
      ],
      "type": "VEC3"
    },
    {
      "bufferView": 2,
      "byteOffset": 728376,
      "componentType": 5126,
      "count": 2390,
      "max": [
        0.9997377395629883,
        0.9982076287269592,
        0.9962612390518188
      ],
      "min": [
        -0.9997377395629883,
        -0.9995484948158264,
        -0.9985902309417725
      ],
      "type": "VEC3"
    },
    {
      "bufferView": 3,
      "byteOffset": 466464,
      "componentType": 5126,
      "count": 2390,
      "max": [
        0.9999200105667114,
        0.9988790154457092,
        0.9983101487159729,
        1.0
      ],
      "min": [
        -0.9999961853027344,
        -0.9988789558410645,
        -0.9983100891113281,
        -1.0
      ],
      "type": "VEC4"
    },
    {
      "bufferView": 1,
      "byteOffset": 233232,
      "componentType": 5126,
      "count": 2390,
      "max": [
        0.9998959898948669,
        0.5450789928436279
      ],
      "min": [
        0.00010399999882793054,
        0.00010399999882793054
      ],
      "type": "VEC2"
    },
    {
      "bufferView": 0,
      "byteOffset": 611472,
      "componentType": 5125,
      "count": 13362,
      "type": "SCALAR"
    },
    {
      "bufferView": 2,
      "byteOffset": 757056,
      "componentType": 5126,
      "count": 578,
      "max": [
        0.46792200207710266,
        -0.24952399730682373,
        0.6601999998092651
      ],
      "min": [
        -0.46792200207710266,
        -0.889277994632721,
        0.40769100189208984
      ],
      "type": "VEC3"
    },
    {
      "bufferView": 2,
      "byteOffset": 763992,
      "componentType": 5126,
      "count": 578,
      "max": [
        0.996188223361969,
        0.9779342412948608,
        0.9956501126289368
      ],
      "min": [
        -0.996188223361969,
        -0.9225427508354187,
        -0.9959651231765747
      ],
      "type": "VEC3"
    },
    {
      "bufferView": 3,
      "byteOffset": 504704,
      "componentType": 5126,
      "count": 578,
      "max": [
        0.9941627383232117,
        0.9937993288040161,
        0.9943711161613464,
        1.0
      ],
      "min": [
        -0.9998569488525391,
        -0.9938035011291504,
        -0.9943720102310181,
        1.0
      ],
      "type": "VEC4"
    },
    {
      "bufferView": 1,
      "byteOffset": 252352,
      "componentType": 5126,
      "count": 578,
      "max": [
        0.9998909831047058,
        0.5954049825668335
      ],
      "min": [
        0.00010900000052060932,
        0.00010900000052060932
      ],
      "type": "VEC2"
    },
    {
      "bufferView": 0,
      "byteOffset": 664920,
      "componentType": 5125,
      "count": 3264,
      "type": "SCALAR"
    },
    {
      "bufferView": 2,
      "byteOffset": 770928,
      "componentType": 5126,
      "count": 688,
      "max": [
        0.45820701122283936,
        -0.24915200471878052,
        0.4814099967479706
      ],
      "min": [
        -0.45820701122283936,
        -0.8909469842910767,
        0.3707669973373413
      ],
      "type": "VEC3"
    },
    {
      "bufferView": 2,
      "byteOffset": 779184,
      "componentType": 5126,
      "count": 688,
      "max": [
        0.995338499546051,
        0.9607765078544617,
        0.9959707856178284
      ],
      "min": [
        -0.995338499546051,
        -0.9871986508369446,
        -0.9971227645874023
      ],
      "type": "VEC3"
    },
    {
      "bufferView": 3,
      "byteOffset": 513952,
      "componentType": 5126,
      "count": 688,
      "max": [
        0.9949491024017334,
        0.9974467754364014,
        0.9972100853919983,
        1.0
      ],
      "min": [
        -0.9945749640464783,
        -0.9942483305931091,
        -0.9976224899291992,
        1.0
      ],
      "type": "VEC4"
    },
    {
      "bufferView": 1,
      "byteOffset": 256976,
      "componentType": 5126,
      "count": 688,
      "max": [
        0.9998800158500671,
        0.7170990109443665
      ],
      "min": [
        0.00011999999696854502,
        0.00011999999696854502
      ],
      "type": "VEC2"
    },
    {
      "bufferView": 0,
      "byteOffset": 677976,
      "componentType": 5125,
      "count": 3540,
      "type": "SCALAR"
    },
    {
      "bufferView": 2,
      "byteOffset": 787440,
      "componentType": 5126,
      "count": 708,
      "max": [
        1.0748369693756104,
        -0.47273799777030945,
        1.1963050365447998
      ],
      "min": [
        -1.0748369693756104,
        -0.5196179747581482,
        1.0601409673690796
      ],
      "type": "VEC3"
    },
    {
      "bufferView": 2,
      "byteOffset": 795936,
      "componentType": 5126,
      "count": 708,
      "max": [
        0.9940036535263062,
        0.9999843835830688,
        0.9947105050086975
      ],
      "min": [
        -0.9940036535263062,
        -0.9998819828033447,
        -0.9999710917472839
      ],
      "type": "VEC3"
    },
    {
      "bufferView": 3,
      "byteOffset": 524960,
      "componentType": 5126,
      "count": 708,
      "max": [
        0.9925260543823242,
        0.9997052550315857,
        0.560276448726654,
        1.0
      ],
      "min": [
        -0.02366093173623085,
        -0.9998995661735535,
        -0.6577810049057007,
        1.0
      ],
      "type": "VEC4"
    },
    {
      "bufferView": 1,
      "byteOffset": 262480,
      "componentType": 5126,
      "count": 708,
      "max": [
        0.9997730255126953,
        0.9675800204277039
      ],
      "min": [
        0.00022699999681208283,
        0.00022699999681208283
      ],
      "type": "VEC2"
    },
    {
      "bufferView": 0,
      "byteOffset": 692136,
      "componentType": 5125,
      "count": 3072,
      "type": "SCALAR"
    },
    {
      "bufferView": 2,
      "byteOffset": 804432,
      "componentType": 5126,
      "count": 836,
      "max": [
        0.8418620228767395,
        -0.504459023475647,
        1.087244987487793
      ],
      "min": [
        -0.8418620228767395,
        -0.9987080097198486,
        0.732541024684906
      ],
      "type": "VEC3"
    },
    {
      "bufferView": 2,
      "byteOffset": 814464,
      "componentType": 5126,
      "count": 836,
      "max": [
        0.9999479055404663,
        0.998202383518219,
        0.9998695254325867
      ],
      "min": [
        -0.9999479055404663,
        -0.9836181402206421,
        -0.9997226595878601
      ],
      "type": "VEC3"
    },
    {
      "bufferView": 3,
      "byteOffset": 536288,
      "componentType": 5126,
      "count": 836,
      "max": [
        1.0,
        0.9966747164726257,
        0.9457154870033264,
        1.0
      ],
      "min": [
        -0.16148695349693298,
        -0.9966970682144165,
        -0.9457154870033264,
        1.0
      ],
      "type": "VEC4"
    },
    {
      "bufferView": 1,
      "byteOffset": 268144,
      "componentType": 5126,
      "count": 836,
      "max": [
        0.999845027923584,
        0.696865975856781
      ],
      "min": [
        0.00015500000154133886,
        0.00015500000154133886
      ],
      "type": "VEC2"
    },
    {
      "bufferView": 0,
      "byteOffset": 704424,
      "componentType": 5125,
      "count": 4320,
      "type": "SCALAR"
    },
    {
      "bufferView": 2,
      "byteOffset": 824496,
      "componentType": 5126,
      "count": 194,
      "max": [
        2.3588979244232178,
        2.511898994445801,
        -0.0013389999512583017
      ],
      "min": [
        -2.357330083847046,
        -2.2043299674987793,
        -0.6914010047912598
      ],
      "type": "VEC3"
    },
    {
      "bufferView": 2,
      "byteOffset": 826824,
      "componentType": 5126,
      "count": 194,
      "max": [
        1.0,
        1.0,
        1.0
      ],
      "min": [
        -1.0,
        -1.0,
        -1.0
      ],
      "type": "VEC3"
    },
    {
      "bufferView": 3,
      "byteOffset": 549664,
      "componentType": 5126,
      "count": 194,
      "max": [
        0.9904707670211792,
        0.7893889546394348,
        0.9979817867279053,
        1.0
      ],
      "min": [
        -0.4924865961074829,
        -0.7125871777534485,
        -0.9977905750274658,
        1.0
      ],
      "type": "VEC4"
    },
    {
      "bufferView": 1,
      "byteOffset": 274832,
      "componentType": 5126,
      "count": 194,
      "max": [
        0.9998530149459839,
        0.9450110197067261
      ],
      "min": [
        0.00014699999883305281,
        0.00014699999883305281
      ],
      "type": "VEC2"
    },
    {
      "bufferView": 0,
      "byteOffset": 721704,
      "componentType": 5125,
      "count": 960,
      "type": "SCALAR"
    },
    {
      "bufferView": 2,
      "byteOffset": 829152,
      "componentType": 5126,
      "count": 254,
      "max": [
        1.0795609951019287,
        0.33413800597190857,
        0.9272220134735107
      ],
      "min": [
        -1.0795609951019287,
        0.11298500001430511,
        0.8618190288543701
      ],
      "type": "VEC3"
    },
    {
      "bufferView": 2,
      "byteOffset": 832200,
      "componentType": 5126,
      "count": 254,
      "max": [
        0.9910100102424622,
        0.9998171329498291,
        0.9995864629745483
      ],
      "min": [
        -0.9910100102424622,
        -0.9991645216941833,
        -0.99190753698349
      ],
      "type": "VEC3"
    },
    {
      "bufferView": 3,
      "byteOffset": 552768,
      "componentType": 5126,
      "count": 254,
      "max": [
        0.9975714683532715,
        0.8165387511253357,
        0.9931649565696716,
        1.0
      ],
      "min": [
        -0.9995161294937134,
        -0.9489744901657104,
        -0.991804301738739,
        1.0
      ],
      "type": "VEC4"
    },
    {
      "bufferView": 1,
      "byteOffset": 276384,
      "componentType": 5126,
      "count": 254,
      "max": [
        1.0,
        1.0
      ],
      "min": [
        0.0,
        0.0
      ],
      "type": "VEC2"
    },
    {
      "bufferView": 0,
      "byteOffset": 725544,
      "componentType": 5125,
      "count": 864,
      "type": "SCALAR"
    },
    {
      "bufferView": 2,
      "byteOffset": 835248,
      "componentType": 5126,
      "count": 506,
      "max": [
        0.2431049942970276,
        -0.3552800118923187,
        1.2644790410995483
      ],
      "min": [
        -0.2431049942970276,
        -0.6925370097160339,
        0.8033720254898071
      ],
      "type": "VEC3"
    },
    {
      "bufferView": 2,
      "byteOffset": 841320,
      "componentType": 5126,
      "count": 506,
      "max": [
        1.0,
        0.9965240955352783,
        0.9985074996948242
      ],
      "min": [
        -1.0,
        -0.9996946454048157,
        -0.990588366985321
      ],
      "type": "VEC3"
    },
    {
      "bufferView": 3,
      "byteOffset": 556832,
      "componentType": 5126,
      "count": 506,
      "max": [
        1.0,
        0.9927986860275269,
        0.9938450455665588,
        1.0
      ],
      "min": [
        -0.9999997615814209,
        -0.998785138130188,
        -0.9880692362785339,
        1.0
      ],
      "type": "VEC4"
    },
    {
      "bufferView": 1,
      "byteOffset": 278416,
      "componentType": 5126,
      "count": 506,
      "max": [
        0.9998379945755005,
        0.9510260224342346
      ],
      "min": [
        0.00016199999663513154,
        0.00016199999663513154
      ],
      "type": "VEC2"
    },
    {
      "bufferView": 0,
      "byteOffset": 729000,
      "componentType": 5125,
      "count": 2472,
      "type": "SCALAR"
    },
    {
      "bufferView": 2,
      "byteOffset": 847392,
      "componentType": 5126,
      "count": 4304,
      "max": [
        1.0667719841003418,
        -0.5928999781608582,
        0.724157989025116
      ],
      "min": [
        -1.0667719841003418,
        -1.3359099626541138,
        -0.018851999193429947
      ],
      "type": "VEC3"
    },
    {
      "bufferView": 2,
      "byteOffset": 899040,
      "componentType": 5126,
      "count": 4304,
      "max": [
        1.0,
        1.0,
        1.0
      ],
      "min": [
        -1.0,
        -1.0,
        -1.0
      ],
      "type": "VEC3"
    },
    {
      "bufferView": 3,
      "byteOffset": 564928,
      "componentType": 5126,
      "count": 4304,
      "max": [
        1.0,
        0.9845234751701355,
        0.9846360087394714,
        1.0
      ],
      "min": [
        -1.0,
        -0.9846361875534058,
        -0.9842213988304138,
        -1.0
      ],
      "type": "VEC4"
    },
    {
      "bufferView": 1,
      "byteOffset": 282464,
      "componentType": 5126,
      "count": 4304,
      "max": [
        0.8681660294532776,
        0.9998260140419006
      ],
      "min": [
        0.0001740000006975606,
        0.0001740000006975606
      ],
      "type": "VEC2"
    },
    {
      "bufferView": 0,
      "byteOffset": 738888,
      "componentType": 5125,
      "count": 22272,
      "type": "SCALAR"
    },
    {
      "bufferView": 2,
      "byteOffset": 950688,
      "componentType": 5126,
      "count": 3588,
      "max": [
        0.9956380128860474,
        1.494784951210022,
        0.7245240211486816
      ],
      "min": [
        -0.9956380128860474,
        0.7510430216789246,
        -0.019217999652028084
      ],
      "type": "VEC3"
    },
    {
      "bufferView": 2,
      "byteOffset": 993744,
      "componentType": 5126,
      "count": 3588,
      "max": [
        1.0,
        1.0,
        1.0
      ],
      "min": [
        -1.0,
        -1.0,
        -1.0
      ],
      "type": "VEC3"
    },
    {
      "bufferView": 3,
      "byteOffset": 633792,
      "componentType": 5126,
      "count": 3588,
      "max": [
        0.9994733929634094,
        0.9849970936775208,
        0.6781356334686279,
        1.0
      ],
      "min": [
        -0.999473512172699,
        -0.04455505311489105,
        -0.7066149711608887,
        -1.0
      ],
      "type": "VEC4"
    },
    {
      "bufferView": 1,
      "byteOffset": 316896,
      "componentType": 5126,
      "count": 3588,
      "max": [
        0.9998649954795837,
        0.8281300067901611
      ],
      "min": [
        0.00013499999477062374,
        0.00013499999477062374
      ],
      "type": "VEC2"
    },
    {
      "bufferView": 0,
      "byteOffset": 827976,
      "componentType": 5125,
      "count": 19968,
      "type": "SCALAR"
    },
    {
      "bufferView": 2,
      "byteOffset": 1036800,
      "componentType": 5126,
      "count": 962,
      "max": [
        1.0710409879684448,
        -0.8310179710388184,
        0.48603999614715576
      ],
      "min": [
        -1.0710409879684448,
        -1.0977920293807983,
        0.21926599740982056
      ],
      "type": "VEC3"
    },
    {
      "bufferView": 2,
      "byteOffset": 1048344,
      "componentType": 5126,
      "count": 962,
      "max": [
        1.0,
        1.0,
        1.0
      ],
      "min": [
        -1.0,
        -1.0,
        -1.0
      ],
      "type": "VEC3"
    },
    {
      "bufferView": 3,
      "byteOffset": 691200,
      "componentType": 5126,
      "count": 962,
      "max": [
        0.999455451965332,
        0.9994915723800659,
        0.48190930485725403,
        1.0
      ],
      "min": [
        -0.999455451965332,
        0.0,
        -0.5179517269134521,
        -1.0
      ],
      "type": "VEC4"
    },
    {
      "bufferView": 1,
      "byteOffset": 345600,
      "componentType": 5126,
      "count": 962,
      "max": [
        0.9927319884300232,
        0.9998999834060669
      ],
      "min": [
        9.999999747378752e-05,
        9.999999747378752e-05
      ],
      "type": "VEC2"
    },
    {
      "bufferView": 0,
      "byteOffset": 907848,
      "componentType": 5125,
      "count": 5376,
      "type": "SCALAR"
    }
  ],
  "asset": {
    "extras": {
      "author": "KulerRuler (https://sketchfab.com/KulerRuler)",
      "license": "CC-BY-4.0 (http://creativecommons.org/licenses/by/4.0/)",
      "source": "https://sketchfab.com/3d-models/clown-in-car-94b08bdb9fb84d09908680790e9645fa",
      "title": "clown in car"
    },
    "generator": "Sketchfab-12.68.0",
    "version": "2.0"
  },
  "bufferViews": [
    {
      "buffer": 0,
      "byteLength": 929352,
      "name": "floatBufferViews",
      "target": 34963
    },
    {
      "buffer": 0,
      "byteLength": 353296,
      "byteOffset": 929352,
      "byteStride": 8,
      "name": "floatBufferViews",
      "target": 34962
    },
    {
      "buffer": 0,
      "byteLength": 1059888,
      "byteOffset": 1282648,
      "byteStride": 12,
      "name": "floatBufferViews",
      "target": 34962
    },
    {
      "buffer": 0,
      "byteLength": 706592,
      "byteOffset": 2342536,
      "byteStride": 16,
      "name": "floatBufferViews",
      "target": 34962
    }
  ],
  "buffers": [
    {
      "byteLength": 3049128,
      "uri": "scene.bin"
    }
  ],
  "images": [
    {
      "uri": "textures/Ballon1_baseColor.png"
    },
    {
      "uri": "textures/Ballon1_metallicRoughness.png"
    },
    {
      "uri": "textures/Ballon1_normal.png"
    },
    {
      "uri": "textures/Ballon2_baseColor.png"
    },
    {
      "uri": "textures/Ballon2_metallicRoughness.png"
    },
    {
      "uri": "textures/Ballon2_normal.png"
    },
    {
      "uri": "textures/Ballon3_baseColor.png"
    },
    {
      "uri": "textures/Ballon3_metallicRoughness.png"
    },
    {
      "uri": "textures/Ballon3_normal.png"
    },
    {
      "uri": "textures/material_baseColor.png"
    },
    {
      "uri": "textures/material_metallicRoughness.png"
    },
    {
      "uri": "textures/material_normal.png"
    },
    {
      "uri": "textures/Hair1_baseColor.png"
    },
    {
      "uri": "textures/Hair1_metallicRoughness.png"
    },
    {
      "uri": "textures/Hair1_normal.png"
    },
    {
      "uri": "textures/Head_baseColor.png"
    },
    {
      "uri": "textures/Head_metallicRoughness.png"
    },
    {
      "uri": "textures/Head_normal.png"
    },
    {
      "uri": "textures/material_6_baseColor.png"
    },
    {
      "uri": "textures/material_6_metallicRoughness.png"
    },
    {
      "uri": "textures/material_6_normal.png"
    },
    {
      "uri": "textures/Nose_baseColor.png"
    },
    {
      "uri": "textures/Nose_metallicRoughness.png"
    },
    {
      "uri": "textures/Nose_normal.png"
    },
    {
      "uri": "textures/Rope_baseColor.png"
    },
    {
      "uri": "textures/Rope_metallicRoughness.png"
    },
    {
      "uri": "textures/Rope_normal.png"
    },
    {
      "uri": "textures/Znak_baseColor.png"
    },
    {
      "uri": "textures/Znak_metallicRoughness.png"
    },
    {
      "uri": "textures/Znak_normal.png"
    },
    {
      "uri": "textures/backbamper_baseColor.png"
    },
    {
      "uri": "textures/backbamper_metallicRoughness.png"
    },
    {
      "uri": "textures/backbamper_normal.png"
    },
    {
      "uri": "textures/backfars_baseColor.png"
    },
    {
      "uri": "textures/backfars_metallicRoughness.png"
    },
    {
      "uri": "textures/backfars_normal.png"
    },
    {
      "uri": "textures/material_12_baseColor.png"
    },
    {
      "uri": "textures/material_12_metallicRoughness.png"
    },
    {
      "uri": "textures/material_12_normal.png"
    },
    {
      "uri": "textures/bagdor_baseColor.png"
    },
    {
      "uri": "textures/bagdor_metallicRoughness.png"
    },
    {
      "uri": "textures/bagdor_normal.png"
    },
    {
      "uri": "textures/cabin_baseColor.png"
    },
    {
      "uri": "textures/cabin_metallicRoughness.png"
    },
    {
      "uri": "textures/cabin_normal.png"
    },
    {
      "uri": "textures/carbase_baseColor.png"
    },
    {
      "uri": "textures/carbase_metallicRoughness.png"
    },
    {
      "uri": "textures/carbase_normal.png"
    },
    {
      "uri": "textures/carfdor_baseColor.png"
    },
    {
      "uri": "textures/carfdor_metallicRoughness.png"
    },
    {
      "uri": "textures/carfdor_normal.png"
    },
    {
      "uri": "textures/carfront_baseColor.png"
    },
    {
      "uri": "textures/carfront_metallicRoughness.png"
    },
    {
      "uri": "textures/carfront_normal.png"
    },
    {
      "uri": "textures/chair_baseColor.png"
    },
    {
      "uri": "textures/chair_metallicRoughness.png"
    },
    {
      "uri": "textures/chair_normal.png"
    },
    {
      "uri": "textures/cloth1_baseColor.png"
    },
    {
      "uri": "textures/cloth1_metallicRoughness.png"
    },
    {
      "uri": "textures/cloth1_normal.png"
    },
    {
      "uri": "textures/cloth2_baseColor.png"
    },
    {
      "uri": "textures/cloth2_metallicRoughness.png"
    },
    {
      "uri": "textures/cloth2_normal.png"
    },
    {
      "uri": "textures/doors_baseColor.png"
    },
    {
      "uri": "textures/doors_metallicRoughness.png"
    },
    {
      "uri": "textures/doors_normal.png"
    },
    {
      "uri": "textures/farfr_baseColor.png"
    },
    {
      "uri": "textures/farfr_metallicRoughness.png"
    },
    {
      "uri": "textures/farfr_normal.png"
    },
    {
      "uri": "textures/frontbamper_baseColor.png"
    },
    {
      "uri": "textures/frontbamper_metallicRoughness.png"
    },
    {
      "uri": "textures/frontbamper_normal.png"
    },
    {
      "uri": "textures/frontbamper2_baseColor.png"
    },
    {
      "uri": "textures/frontbamper2_metallicRoughness.png"
    },
    {
      "uri": "textures/frontbamper2_normal.png"
    },
    {
      "uri": "textures/hands1_baseColor.png"
    },
    {
      "uri": "textures/hands1_metallicRoughness.png"
    },
    {
      "uri": "textures/hands1_normal.png"
    },
    {
      "uri": "textures/hands2_baseColor.png"
    },
    {
      "uri": "textures/hands2_metallicRoughness.png"
    },
    {
      "uri": "textures/hands2_normal.png"
    },
    {
      "uri": "textures/legs_baseColor.png"
    },
    {
      "uri": "textures/legs_metallicRoughness.png"
    },
    {
      "uri": "textures/legs_normal.png"
    },
    {
      "uri": "textures/legs2_baseColor.png"
    },
    {
      "uri": "textures/legs2_metallicRoughness.png"
    },
    {
      "uri": "textures/legs2_normal.png"
    },
    {
      "uri": "textures/legs3_baseColor.png"
    },
    {
      "uri": "textures/legs3_metallicRoughness.png"
    },
    {
      "uri": "textures/legs3_normal.png"
    },
    {
      "uri": "textures/mirrors_baseColor.png"
    },
    {
      "uri": "textures/mirrors_metallicRoughness.png"
    },
    {
      "uri": "textures/mirrors_normal.png"
    },
    {
      "uri": "textures/panel_baseColor.png"
    },
    {
      "uri": "textures/panel_metallicRoughness.png"
    },
    {
      "uri": "textures/panel_normal.png"
    },
    {
      "uri": "textures/postam_baseColor.png"
    },
    {
      "uri": "textures/postam_metallicRoughness.png"
    },
    {
      "uri": "textures/postam_normal.png"
    },
    {
      "uri": "textures/ruch_baseColor.png"
    },
    {
      "uri": "textures/ruch_metallicRoughness.png"
    },
    {
      "uri": "textures/ruch_normal.png"
    },
    {
      "uri": "textures/material_34_baseColor.png"
    },
    {
      "uri": "textures/material_34_metallicRoughness.png"
    },
    {
      "uri": "textures/material_34_normal.png"
    },
    {
      "uri": "textures/whell1_baseColor.png"
    },
    {
      "uri": "textures/whell1_metallicRoughness.png"
    },
    {
      "uri": "textures/whell1_normal.png"
    },
    {
      "uri": "textures/whell2_baseColor.png"
    },
    {
      "uri": "textures/whell2_metallicRoughness.png"
    },
    {
      "uri": "textures/whell2_normal.png"
    },
    {
      "uri": "textures/whell3_baseColor.png"
    },
    {
      "uri": "textures/whell3_metallicRoughness.png"
    },
    {
      "uri": "textures/whell3_normal.png"
    }
  ],
  "materials": [
    {
      "doubleSided": true,
      "name": "Ballon1",
      "normalTexture": {
        "index": 2
      },
      "pbrMetallicRoughness": {
        "baseColorTexture": {
          "index": 0
        },
        "metallicRoughnessTexture": {
          "index": 1
        }
      }
    },
    {
      "doubleSided": true,
      "name": "Ballon2",
      "normalTexture": {
        "index": 5
      },
      "pbrMetallicRoughness": {
        "baseColorTexture": {
          "index": 3
        },
        "metallicRoughnessTexture": {
          "index": 4
        }
      }
    },
    {
      "doubleSided": true,
      "name": "Ballon3",
      "normalTexture": {
        "index": 8
      },
      "pbrMetallicRoughness": {
        "baseColorTexture": {
          "index": 6
        },
        "metallicRoughnessTexture": {
          "index": 7
        }
      }
    },
    {
      "doubleSided": true,
      "name": "material",
      "normalTexture": {
        "index": 11
      },
      "pbrMetallicRoughness": {
        "baseColorTexture": {
          "index": 9
        },
        "metallicRoughnessTexture": {
          "index": 10
        }
      }
    },
    {
      "doubleSided": true,
      "name": "Hair1",
      "normalTexture": {
        "index": 14
      },
      "pbrMetallicRoughness": {
        "baseColorTexture": {
          "index": 12
        },
        "metallicRoughnessTexture": {
          "index": 13
        }
      }
    },
    {
      "doubleSided": true,
      "name": "Head",
      "normalTexture": {
        "index": 17
      },
      "pbrMetallicRoughness": {
        "baseColorTexture": {
          "index": 15
        },
        "metallicRoughnessTexture": {
          "index": 16
        }
      }
    },
    {
      "doubleSided": true,
      "name": "material_6",
      "normalTexture": {
        "index": 20
      },
      "pbrMetallicRoughness": {
        "baseColorTexture": {
          "index": 18
        },
        "metallicRoughnessTexture": {
          "index": 19
        }
      }
    },
    {
      "doubleSided": true,
      "name": "Nose",
      "normalTexture": {
        "index": 23
      },
      "pbrMetallicRoughness": {
        "baseColorTexture": {
          "index": 21
        },
        "metallicRoughnessTexture": {
          "index": 22
        }
      }
    },
    {
      "doubleSided": true,
      "name": "Rope",
      "normalTexture": {
        "index": 26
      },
      "pbrMetallicRoughness": {
        "baseColorTexture": {
          "index": 24
        },
        "metallicRoughnessTexture": {
          "index": 25
        }
      }
    },
    {
      "doubleSided": true,
      "name": "Znak",
      "normalTexture": {
        "index": 29
      },
      "pbrMetallicRoughness": {
        "baseColorTexture": {
          "index": 27
        },
        "metallicRoughnessTexture": {
          "index": 28
        }
      }
    },
    {
      "doubleSided": true,
      "name": "backbamper",
      "normalTexture": {
        "index": 32
      },
      "pbrMetallicRoughness": {
        "baseColorTexture": {
          "index": 30
        },
        "metallicRoughnessTexture": {
          "index": 31
        }
      }
    },
    {
      "doubleSided": true,
      "name": "backfars",
      "normalTexture": {
        "index": 35
      },
      "pbrMetallicRoughness": {
        "baseColorTexture": {
          "index": 33
        },
        "metallicRoughnessTexture": {
          "index": 34
        }
      }
    },
    {
      "doubleSided": true,
      "name": "material_12",
      "normalTexture": {
        "index": 38
      },
      "pbrMetallicRoughness": {
        "baseColorTexture": {
          "index": 36
        },
        "metallicRoughnessTexture": {
          "index": 37
        }
      }
    },
    {
      "doubleSided": true,
      "name": "bagdor",
      "normalTexture": {
        "index": 41
      },
      "pbrMetallicRoughness": {
        "baseColorTexture": {
          "index": 39
        },
        "metallicRoughnessTexture": {
          "index": 40
        }
      }
    },
    {
      "doubleSided": true,
      "name": "cabin",
      "normalTexture": {
        "index": 44
      },
      "pbrMetallicRoughness": {
        "baseColorTexture": {
          "index": 42
        },
        "metallicRoughnessTexture": {
          "index": 43
        }
      }
    },
    {
      "doubleSided": true,
      "name": "carbase",
      "normalTexture": {
        "index": 47
      },
      "pbrMetallicRoughness": {
        "baseColorTexture": {
          "index": 45
        },
        "metallicRoughnessTexture": {
          "index": 46
        }
      }
    },
    {
      "doubleSided": true,
      "name": "carfdor",
      "normalTexture": {
        "index": 50
      },
      "pbrMetallicRoughness": {
        "baseColorTexture": {
          "index": 48
        },
        "metallicRoughnessTexture": {
          "index": 49
        }
      }
    },
    {
      "doubleSided": true,
      "name": "carfront",
      "normalTexture": {
        "index": 53
      },
      "pbrMetallicRoughness": {
        "baseColorTexture": {
          "index": 51
        },
        "metallicRoughnessTexture": {
          "index": 52
        }
      }
    },
    {
      "doubleSided": true,
      "name": "chair",
      "normalTexture": {
        "index": 56
      },
      "pbrMetallicRoughness": {
        "baseColorTexture": {
          "index": 54
        },
        "metallicRoughnessTexture": {
          "index": 55
        }
      }
    },
    {
      "doubleSided": true,
      "name": "cloth1",
      "normalTexture": {
        "index": 59
      },
      "pbrMetallicRoughness": {
        "baseColorTexture": {
          "index": 57
        },
        "metallicRoughnessTexture": {
          "index": 58
        }
      }
    },
    {
      "doubleSided": true,
      "name": "cloth2",
      "normalTexture": {
        "index": 62
      },
      "pbrMetallicRoughness": {
        "baseColorTexture": {
          "index": 60
        },
        "metallicRoughnessTexture": {
          "index": 61
        }
      }
    },
    {
      "doubleSided": true,
      "name": "doors",
      "normalTexture": {
        "index": 65
      },
      "pbrMetallicRoughness": {
        "baseColorTexture": {
          "index": 63
        },
        "metallicRoughnessTexture": {
          "index": 64
        }
      }
    },
    {
      "doubleSided": true,
      "name": "farfr",
      "normalTexture": {
        "index": 68
      },
      "pbrMetallicRoughness": {
        "baseColorTexture": {
          "index": 66
        },
        "metallicRoughnessTexture": {
          "index": 67
        }
      }
    },
    {
      "doubleSided": true,
      "name": "frontbamper",
      "normalTexture": {
        "index": 71
      },
      "pbrMetallicRoughness": {
        "baseColorTexture": {
          "index": 69
        },
        "metallicRoughnessTexture": {
          "index": 70
        }
      }
    },
    {
      "doubleSided": true,
      "name": "frontbamper2",
      "normalTexture": {
        "index": 74
      },
      "pbrMetallicRoughness": {
        "baseColorTexture": {
          "index": 72
        },
        "metallicRoughnessTexture": {
          "index": 73
        }
      }
    },
    {
      "doubleSided": true,
      "name": "hands1",
      "normalTexture": {
        "index": 77
      },
      "pbrMetallicRoughness": {
        "baseColorTexture": {
          "index": 75
        },
        "metallicRoughnessTexture": {
          "index": 76
        }
      }
    },
    {
      "doubleSided": true,
      "name": "hands2",
      "normalTexture": {
        "index": 80
      },
      "pbrMetallicRoughness": {
        "baseColorTexture": {
          "index": 78
        },
        "metallicRoughnessTexture": {
          "index": 79
        }
      }
    },
    {
      "doubleSided": true,
      "name": "legs",
      "normalTexture": {
        "index": 83
      },
      "pbrMetallicRoughness": {
        "baseColorTexture": {
          "index": 81
        },
        "metallicRoughnessTexture": {
          "index": 82
        }
      }
    },
    {
      "doubleSided": true,
      "name": "legs2",
      "normalTexture": {
        "index": 86
      },
      "pbrMetallicRoughness": {
        "baseColorTexture": {
          "index": 84
        },
        "metallicRoughnessTexture": {
          "index": 85
        }
      }
    },
    {
      "doubleSided": true,
      "name": "legs3",
      "normalTexture": {
        "index": 89
      },
      "pbrMetallicRoughness": {
        "baseColorTexture": {
          "index": 87
        },
        "metallicRoughnessTexture": {
          "index": 88
        }
      }
    },
    {
      "doubleSided": true,
      "name": "mirrors",
      "normalTexture": {
        "index": 92
      },
      "pbrMetallicRoughness": {
        "baseColorTexture": {
          "index": 90
        },
        "metallicRoughnessTexture": {
          "index": 91
        }
      }
    },
    {
      "doubleSided": true,
      "name": "panel",
      "normalTexture": {
        "index": 95
      },
      "pbrMetallicRoughness": {
        "baseColorTexture": {
          "index": 93
        },
        "metallicRoughnessTexture": {
          "index": 94
        }
      }
    },
    {
      "doubleSided": true,
      "name": "postam",
      "normalTexture": {
        "index": 98
      },
      "pbrMetallicRoughness": {
        "baseColorTexture": {
          "index": 96
        },
        "metallicRoughnessTexture": {
          "index": 97
        }
      }
    },
    {
      "doubleSided": true,
      "name": "ruch",
      "normalTexture": {
        "index": 101
      },
      "pbrMetallicRoughness": {
        "baseColorTexture": {
          "index": 99
        },
        "metallicRoughnessTexture": {
          "index": 100
        }
      }
    },
    {
      "doubleSided": true,
      "name": "material_34",
      "normalTexture": {
        "index": 104
      },
      "pbrMetallicRoughness": {
        "baseColorTexture": {
          "index": 102
        },
        "metallicRoughnessTexture": {
          "index": 103
        }
      }
    },
    {
      "doubleSided": true,
      "name": "whell1",
      "normalTexture": {
        "index": 107
      },
      "pbrMetallicRoughness": {
        "baseColorTexture": {
          "index": 105
        },
        "metallicRoughnessTexture": {
          "index": 106
        }
      }
    },
    {
      "doubleSided": true,
      "name": "whell2",
      "normalTexture": {
        "index": 110
      },
      "pbrMetallicRoughness": {
        "baseColorTexture": {
          "index": 108
        },
        "metallicRoughnessTexture": {
          "index": 109
        }
      }
    },
    {
      "doubleSided": true,
      "name": "whell3",
      "normalTexture": {
        "index": 113
      },
      "pbrMetallicRoughness": {
        "baseColorTexture": {
          "index": 111
        },
        "metallicRoughnessTexture": {
          "index": 112
        }
      }
    }
  ],
  "meshes": [
    {
      "name": "Object_0",
      "primitives": [
        {
          "attributes": {
            "NORMAL": 1,
            "POSITION": 0,
            "TANGENT": 2,
            "TEXCOORD_0": 3
          },
          "indices": 4,
          "material": 0,
          "mode": 4
        }
      ]
    },
    {
      "name": "Object_1",
      "primitives": [
        {
          "attributes": {
            "NORMAL": 6,
            "POSITION": 5,
            "TANGENT": 7,
            "TEXCOORD_0": 8
          },
          "indices": 9,
          "material": 1,
          "mode": 4
        }
      ]
    },
    {
      "name": "Object_2",
      "primitives": [
        {
          "attributes": {
            "NORMAL": 11,
            "POSITION": 10,
            "TANGENT": 12,
            "TEXCOORD_0": 13
          },
          "indices": 14,
          "material": 2,
          "mode": 4
        }
      ]
    },
    {
      "name": "Object_3",
      "primitives": [
        {
          "attributes": {
            "NORMAL": 16,
            "POSITION": 15,
            "TANGENT": 17,
            "TEXCOORD_0": 18
          },
          "indices": 19,
          "material": 3,
          "mode": 4
        }
      ]
    },
    {
      "name": "Object_4",
      "primitives": [
        {
          "attributes": {
            "NORMAL": 21,
            "POSITION": 20,
            "TANGENT": 22,
            "TEXCOORD_0": 23
          },
          "indices": 24,
          "material": 4,
          "mode": 4
        }
      ]
    },
    {
      "name": "Object_5",
      "primitives": [
        {
          "attributes": {
            "NORMAL": 26,
            "POSITION": 25,
            "TANGENT": 27,
            "TEXCOORD_0": 28
          },
          "indices": 29,
          "material": 5,
          "mode": 4
        }
      ]
    },
    {
      "name": "Object_6",
      "primitives": [
        {
          "attributes": {
            "NORMAL": 31,
            "POSITION": 30,
            "TANGENT": 32,
            "TEXCOORD_0": 33
          },
          "indices": 34,
          "material": 6,
          "mode": 4
        }
      ]
    },
    {
      "name": "Object_7",
      "primitives": [
        {
          "attributes": {
            "NORMAL": 36,
            "POSITION": 35,
            "TANGENT": 37,
            "TEXCOORD_0": 38
          },
          "indices": 39,
          "material": 7,
          "mode": 4
        }
      ]
    },
    {
      "name": "Object_8",
      "primitives": [
        {
          "attributes": {
            "NORMAL": 41,
            "POSITION": 40,
            "TANGENT": 42,
            "TEXCOORD_0": 43
          },
          "indices": 44,
          "material": 8,
          "mode": 4
        }
      ]
    },
    {
      "name": "Object_9",
      "primitives": [
        {
          "attributes": {
            "NORMAL": 46,
            "POSITION": 45,
            "TANGENT": 47,
            "TEXCOORD_0": 48
          },
          "indices": 49,
          "material": 9,
          "mode": 4
        }
      ]
    },
    {
      "name": "Object_10",
      "primitives": [
        {
          "attributes": {
            "NORMAL": 51,
            "POSITION": 50,
            "TANGENT": 52,
            "TEXCOORD_0": 53
          },
          "indices": 54,
          "material": 10,
          "mode": 4
        }
      ]
    },
    {
      "name": "Object_11",
      "primitives": [
        {
          "attributes": {
            "NORMAL": 56,
            "POSITION": 55,
            "TANGENT": 57,
            "TEXCOORD_0": 58
          },
          "indices": 59,
          "material": 11,
          "mode": 4
        }
      ]
    },
    {
      "name": "Object_12",
      "primitives": [
        {
          "attributes": {
            "NORMAL": 61,
            "POSITION": 60,
            "TANGENT": 62,
            "TEXCOORD_0": 63
          },
          "indices": 64,
          "material": 12,
          "mode": 4
        }
      ]
    },
    {
      "name": "Object_13",
      "primitives": [
        {
          "attributes": {
            "NORMAL": 66,
            "POSITION": 65,
            "TANGENT": 67,
            "TEXCOORD_0": 68
          },
          "indices": 69,
          "material": 13,
          "mode": 4
        }
      ]
    },
    {
      "name": "Object_14",
      "primitives": [
        {
          "attributes": {
            "NORMAL": 71,
            "POSITION": 70,
            "TANGENT": 72,
            "TEXCOORD_0": 73
          },
          "indices": 74,
          "material": 14,
          "mode": 4
        }
      ]
    },
    {
      "name": "Object_15",
      "primitives": [
        {
          "attributes": {
            "NORMAL": 76,
            "POSITION": 75,
            "TANGENT": 77,
            "TEXCOORD_0": 78
          },
          "indices": 79,
          "material": 15,
          "mode": 4
        }
      ]
    },
    {
      "name": "Object_16",
      "primitives": [
        {
          "attributes": {
            "NORMAL": 81,
            "POSITION": 80,
            "TANGENT": 82,
            "TEXCOORD_0": 83
          },
          "indices": 84,
          "material": 16,
          "mode": 4
        }
      ]
    },
    {
      "name": "Object_17",
      "primitives": [
        {
          "attributes": {
            "NORMAL": 86,
            "POSITION": 85,
            "TANGENT": 87,
            "TEXCOORD_0": 88
          },
          "indices": 89,
          "material": 17,
          "mode": 4
        }
      ]
    },
    {
      "name": "Object_18",
      "primitives": [
        {
          "attributes": {
            "NORMAL": 91,
            "POSITION": 90,
            "TANGENT": 92,
            "TEXCOORD_0": 93
          },
          "indices": 94,
          "material": 18,
          "mode": 4
        }
      ]
    },
    {
      "name": "Object_19",
      "primitives": [
        {
          "attributes": {
            "NORMAL": 96,
            "POSITION": 95,
            "TANGENT": 97,
            "TEXCOORD_0": 98
          },
          "indices": 99,
          "material": 19,
          "mode": 4
        }
      ]
    },
    {
      "name": "Object_20",
      "primitives": [
        {
          "attributes": {
            "NORMAL": 101,
            "POSITION": 100,
            "TANGENT": 102,
            "TEXCOORD_0": 103
          },
          "indices": 104,
          "material": 20,
          "mode": 4
        }
      ]
    },
    {
      "name": "Object_21",
      "primitives": [
        {
          "attributes": {
            "NORMAL": 106,
            "POSITION": 105,
            "TANGENT": 107,
            "TEXCOORD_0": 108
          },
          "indices": 109,
          "material": 21,
          "mode": 4
        }
      ]
    },
    {
      "name": "Object_22",
      "primitives": [
        {
          "attributes": {
            "NORMAL": 111,
            "POSITION": 110,
            "TANGENT": 112,
            "TEXCOORD_0": 113
          },
          "indices": 114,
          "material": 22,
          "mode": 4
        }
      ]
    },
    {
      "name": "Object_23",
      "primitives": [
        {
          "attributes": {
            "NORMAL": 116,
            "POSITION": 115,
            "TANGENT": 117,
            "TEXCOORD_0": 118
          },
          "indices": 119,
          "material": 23,
          "mode": 4
        }
      ]
    },
    {
      "name": "Object_24",
      "primitives": [
        {
          "attributes": {
            "NORMAL": 121,
            "POSITION": 120,
            "TANGENT": 122,
            "TEXCOORD_0": 123
          },
          "indices": 124,
          "material": 24,
          "mode": 4
        }
      ]
    },
    {
      "name": "Object_25",
      "primitives": [
        {
          "attributes": {
            "NORMAL": 126,
            "POSITION": 125,
            "TANGENT": 127,
            "TEXCOORD_0": 128
          },
          "indices": 129,
          "material": 25,
          "mode": 4
        }
      ]
    },
    {
      "name": "Object_26",
      "primitives": [
        {
          "attributes": {
            "NORMAL": 131,
            "POSITION": 130,
            "TANGENT": 132,
            "TEXCOORD_0": 133
          },
          "indices": 134,
          "material": 26,
          "mode": 4
        }
      ]
    },
    {
      "name": "Object_27",
      "primitives": [
        {
          "attributes": {
            "NORMAL": 136,
            "POSITION": 135,
            "TANGENT": 137,
            "TEXCOORD_0": 138
          },
          "indices": 139,
          "material": 27,
          "mode": 4
        }
      ]
    },
    {
      "name": "Object_28",
      "primitives": [
        {
          "attributes": {
            "NORMAL": 141,
            "POSITION": 140,
            "TANGENT": 142,
            "TEXCOORD_0": 143
          },
          "indices": 144,
          "material": 28,
          "mode": 4
        }
      ]
    },
    {
      "name": "Object_29",
      "primitives": [
        {
          "attributes": {
            "NORMAL": 146,
            "POSITION": 145,
            "TANGENT": 147,
            "TEXCOORD_0": 148
          },
          "indices": 149,
          "material": 29,
          "mode": 4
        }
      ]
    },
    {
      "name": "Object_30",
      "primitives": [
        {
          "attributes": {
            "NORMAL": 151,
            "POSITION": 150,
            "TANGENT": 152,
            "TEXCOORD_0": 153
          },
          "indices": 154,
          "material": 30,
          "mode": 4
        }
      ]
    },
    {
      "name": "Object_31",
      "primitives": [
        {
          "attributes": {
            "NORMAL": 156,
            "POSITION": 155,
            "TANGENT": 157,
            "TEXCOORD_0": 158
          },
          "indices": 159,
          "material": 31,
          "mode": 4
        }
      ]
    },
    {
      "name": "Object_32",
      "primitives": [
        {
          "attributes": {
            "NORMAL": 161,
            "POSITION": 160,
            "TANGENT": 162,
            "TEXCOORD_0": 163
          },
          "indices": 164,
          "material": 32,
          "mode": 4
        }
      ]
    },
    {
      "name": "Object_33",
      "primitives": [
        {
          "attributes": {
            "NORMAL": 166,
            "POSITION": 165,
            "TANGENT": 167,
            "TEXCOORD_0": 168
          },
          "indices": 169,
          "material": 33,
          "mode": 4
        }
      ]
    },
    {
      "name": "Object_34",
      "primitives": [
        {
          "attributes": {
            "NORMAL": 171,
            "POSITION": 170,
            "TANGENT": 172,
            "TEXCOORD_0": 173
          },
          "indices": 174,
          "material": 34,
          "mode": 4
        }
      ]
    },
    {
      "name": "Object_35",
      "primitives": [
        {
          "attributes": {
            "NORMAL": 176,
            "POSITION": 175,
            "TANGENT": 177,
            "TEXCOORD_0": 178
          },
          "indices": 179,
          "material": 35,
          "mode": 4
        }
      ]
    },
    {
      "name": "Object_36",
      "primitives": [
        {
          "attributes": {
            "NORMAL": 181,
            "POSITION": 180,
            "TANGENT": 182,
            "TEXCOORD_0": 183
          },
          "indices": 184,
          "material": 36,
          "mode": 4
        }
      ]
    },
    {
      "name": "Object_37",
      "primitives": [
        {
          "attributes": {
            "NORMAL": 186,
            "POSITION": 185,
            "TANGENT": 187,
            "TEXCOORD_0": 188
          },
          "indices": 189,
          "material": 37,
          "mode": 4
        }
      ]
    }
  ],
  "nodes": [
    {
      "children": [
        1
      ],
      "matrix": [
        1.0,
        0.0,
        0.0,
        0.0,
        0.0,
        2.220446049250313e-16,
        -1.0,
        0.0,
        0.0,
        1.0,
        2.220446049250313e-16,
        0.0,
        0.0,
        0.0,
        0.0,
        1.0
      ],
      "name": "Sketchfab_model"
    },
    {
      "children": [
        2,
        3,
        4,
        5,
        6,
        7,
        8,
        9,
        10,
        11,
        12,
        13,
        14,
        15,
        16,
        17,
        18,
        19,
        20,
        21,
        22,
        23,
        24,
        25,
        26,
        27,
        28,
        29,
        30,
        31,
        32,
        33,
        34,
        35,
        36,
        37,
        38,
        39
      ],
      "name": "export3dcoat.obj.cleaner.materialmerger.gles"
    },
    {
      "mesh": 0,
      "name": "Object_2"
    },
    {
      "mesh": 1,
      "name": "Object_3"
    },
    {
      "mesh": 2,
      "name": "Object_4"
    },
    {
      "mesh": 3,
      "name": "Object_5"
    },
    {
      "mesh": 4,
      "name": "Object_6"
    },
    {
      "mesh": 5,
      "name": "Object_7"
    },
    {
      "mesh": 6,
      "name": "Object_8"
    },
    {
      "mesh": 7,
      "name": "Object_9"
    },
    {
      "mesh": 8,
      "name": "Object_10"
    },
    {
      "mesh": 9,
      "name": "Object_11"
    },
    {
      "mesh": 10,
      "name": "Object_12"
    },
    {
      "mesh": 11,
      "name": "Object_13"
    },
    {
      "mesh": 12,
      "name": "Object_14"
    },
    {
      "mesh": 13,
      "name": "Object_15"
    },
    {
      "mesh": 14,
      "name": "Object_16"
    },
    {
      "mesh": 15,
      "name": "Object_17"
    },
    {
      "mesh": 16,
      "name": "Object_18"
    },
    {
      "mesh": 17,
      "name": "Object_19"
    },
    {
      "mesh": 18,
      "name": "Object_20"
    },
    {
      "mesh": 19,
      "name": "Object_21"
    },
    {
      "mesh": 20,
      "name": "Object_22"
    },
    {
      "mesh": 21,
      "name": "Object_23"
    },
    {
      "mesh": 22,
      "name": "Object_24"
    },
    {
      "mesh": 23,
      "name": "Object_25"
    },
    {
      "mesh": 24,
      "name": "Object_26"
    },
    {
      "mesh": 25,
      "name": "Object_27"
    },
    {
      "mesh": 26,
      "name": "Object_28"
    },
    {
      "mesh": 27,
      "name": "Object_29"
    },
    {
      "mesh": 28,
      "name": "Object_30"
    },
    {
      "mesh": 29,
      "name": "Object_31"
    },
    {
      "mesh": 30,
      "name": "Object_32"
    },
    {
      "mesh": 31,
      "name": "Object_33"
    },
    {
      "mesh": 32,
      "name": "Object_34"
    },
    {
      "mesh": 33,
      "name": "Object_35"
    },
    {
      "mesh": 34,
      "name": "Object_36"
    },
    {
      "mesh": 35,
      "name": "Object_37"
    },
    {
      "mesh": 36,
      "name": "Object_38"
    },
    {
      "mesh": 37,
      "name": "Object_39"
    }
  ],
  "samplers": [
    {
      "magFilter": 9729,
      "minFilter": 9987,
      "wrapS": 10497,
      "wrapT": 10497
    }
  ],
  "scene": 0,
  "scenes": [
    {
      "name": "Sketchfab_Scene",
      "nodes": [
        0
      ]
    }
  ],
  "textures": [
    {
      "sampler": 0,
      "source": 0
    },
    {
      "sampler": 0,
      "source": 1
    },
    {
      "sampler": 0,
      "source": 2
    },
    {
      "sampler": 0,
      "source": 3
    },
    {
      "sampler": 0,
      "source": 4
    },
    {
      "sampler": 0,
      "source": 5
    },
    {
      "sampler": 0,
      "source": 6
    },
    {
      "sampler": 0,
      "source": 7
    },
    {
      "sampler": 0,
      "source": 8
    },
    {
      "sampler": 0,
      "source": 9
    },
    {
      "sampler": 0,
      "source": 10
    },
    {
      "sampler": 0,
      "source": 11
    },
    {
      "sampler": 0,
      "source": 12
    },
    {
      "sampler": 0,
      "source": 13
    },
    {
      "sampler": 0,
      "source": 14
    },
    {
      "sampler": 0,
      "source": 15
    },
    {
      "sampler": 0,
      "source": 16
    },
    {
      "sampler": 0,
      "source": 17
    },
    {
      "sampler": 0,
      "source": 18
    },
    {
      "sampler": 0,
      "source": 19
    },
    {
      "sampler": 0,
      "source": 20
    },
    {
      "sampler": 0,
      "source": 21
    },
    {
      "sampler": 0,
      "source": 22
    },
    {
      "sampler": 0,
      "source": 23
    },
    {
      "sampler": 0,
      "source": 24
    },
    {
      "sampler": 0,
      "source": 25
    },
    {
      "sampler": 0,
      "source": 26
    },
    {
      "sampler": 0,
      "source": 27
    },
    {
      "sampler": 0,
      "source": 28
    },
    {
      "sampler": 0,
      "source": 29
    },
    {
      "sampler": 0,
      "source": 30
    },
    {
      "sampler": 0,
      "source": 31
    },
    {
      "sampler": 0,
      "source": 32
    },
    {
      "sampler": 0,
      "source": 33
    },
    {
      "sampler": 0,
      "source": 34
    },
    {
      "sampler": 0,
      "source": 35
    },
    {
      "sampler": 0,
      "source": 36
    },
    {
      "sampler": 0,
      "source": 37
    },
    {
      "sampler": 0,
      "source": 38
    },
    {
      "sampler": 0,
      "source": 39
    },
    {
      "sampler": 0,
      "source": 40
    },
    {
      "sampler": 0,
      "source": 41
    },
    {
      "sampler": 0,
      "source": 42
    },
    {
      "sampler": 0,
      "source": 43
    },
    {
      "sampler": 0,
      "source": 44
    },
    {
      "sampler": 0,
      "source": 45
    },
    {
      "sampler": 0,
      "source": 46
    },
    {
      "sampler": 0,
      "source": 47
    },
    {
      "sampler": 0,
      "source": 48
    },
    {
      "sampler": 0,
      "source": 49
    },
    {
      "sampler": 0,
      "source": 50
    },
    {
      "sampler": 0,
      "source": 51
    },
    {
      "sampler": 0,
      "source": 52
    },
    {
      "sampler": 0,
      "source": 53
    },
    {
      "sampler": 0,
      "source": 54
    },
    {
      "sampler": 0,
      "source": 55
    },
    {
      "sampler": 0,
      "source": 56
    },
    {
      "sampler": 0,
      "source": 57
    },
    {
      "sampler": 0,
      "source": 58
    },
    {
      "sampler": 0,
      "source": 59
    },
    {
      "sampler": 0,
      "source": 60
    },
    {
      "sampler": 0,
      "source": 61
    },
    {
      "sampler": 0,
      "source": 62
    },
    {
      "sampler": 0,
      "source": 63
    },
    {
      "sampler": 0,
      "source": 64
    },
    {
      "sampler": 0,
      "source": 65
    },
    {
      "sampler": 0,
      "source": 66
    },
    {
      "sampler": 0,
      "source": 67
    },
    {
      "sampler": 0,
      "source": 68
    },
    {
      "sampler": 0,
      "source": 69
    },
    {
      "sampler": 0,
      "source": 70
    },
    {
      "sampler": 0,
      "source": 71
    },
    {
      "sampler": 0,
      "source": 72
    },
    {
      "sampler": 0,
      "source": 73
    },
    {
      "sampler": 0,
      "source": 74
    },
    {
      "sampler": 0,
      "source": 75
    },
    {
      "sampler": 0,
      "source": 76
    },
    {
      "sampler": 0,
      "source": 77
    },
    {
      "sampler": 0,
      "source": 78
    },
    {
      "sampler": 0,
      "source": 79
    },
    {
      "sampler": 0,
      "source": 80
    },
    {
      "sampler": 0,
      "source": 81
    },
    {
      "sampler": 0,
      "source": 82
    },
    {
      "sampler": 0,
      "source": 83
    },
    {
      "sampler": 0,
      "source": 84
    },
    {
      "sampler": 0,
      "source": 85
    },
    {
      "sampler": 0,
      "source": 86
    },
    {
      "sampler": 0,
      "source": 87
    },
    {
      "sampler": 0,
      "source": 88
    },
    {
      "sampler": 0,
      "source": 89
    },
    {
      "sampler": 0,
      "source": 90
    },
    {
      "sampler": 0,
      "source": 91
    },
    {
      "sampler": 0,
      "source": 92
    },
    {
      "sampler": 0,
      "source": 93
    },
    {
      "sampler": 0,
      "source": 94
    },
    {
      "sampler": 0,
      "source": 95
    },
    {
      "sampler": 0,
      "source": 96
    },
    {
      "sampler": 0,
      "source": 97
    },
    {
      "sampler": 0,
      "source": 98
    },
    {
      "sampler": 0,
      "source": 99
    },
    {
      "sampler": 0,
      "source": 100
    },
    {
      "sampler": 0,
      "source": 101
    },
    {
      "sampler": 0,
      "source": 102
    },
    {
      "sampler": 0,
      "source": 103
    },
    {
      "sampler": 0,
      "source": 104
    },
    {
      "sampler": 0,
      "source": 105
    },
    {
      "sampler": 0,
      "source": 106
    },
    {
      "sampler": 0,
      "source": 107
    },
    {
      "sampler": 0,
      "source": 108
    },
    {
      "sampler": 0,
      "source": 109
    },
    {
      "sampler": 0,
      "source": 110
    },
    {
      "sampler": 0,
      "source": 111
    },
    {
      "sampler": 0,
      "source": 112
    },
    {
      "sampler": 0,
      "source": 113
    }
  ]
}
