{
  "accessors": [
    {
      "bufferView": 2,
      "componentType": 5126,
      "count": 6638,
      "max": [
        0.0054066600278019905,
        0.0036090100184082985,
        -5.317999966791831e-05
      ],
      "min": [
        -0.0054066600278019905,
        -0.0031473699491471052,
        -0.014886350370943546
      ],
      "type": "VEC3"
    },
    {
      "bufferView": 2,
      "byteOffset": 79656,
      "componentType": 5126,
      "count": 6638,
      "max": [
        0.9997473955154419,
        0.9999935626983643,
        1.0
      ],
      "min": [
        -0.9997473955154419,
        -0.9996358752250671,
        -0.9997569918632507
      ],
      "type": "VEC3"
    },
    {
      "bufferView": 1,
      "componentType": 5126,
      "count": 6638,
      "max": [
        0.9970703125,
        0.9946746826171875
      ],
      "min": [
        0.003047943115234375,
        0.0029296875
      ],
      "type": "VEC2"
    },
    {
      "bufferView": 0,
      "componentType": 5125,
      "count": 14718,
      "type": "SCALAR"
    },
    {
      "bufferView": 2,
      "byteOffset": 159312,
      "componentType": 5126,
      "count": 2345,
      "max": [
        0.0035389200784265995,
        0.0032773599959909916,
        -0.014492389746010303
      ],
      "min": [
        -0.0033183901105076075,
        -0.002807419979944825,
        -0.02166575938463211
      ],
      "type": "VEC3"
    },
    {
      "bufferView": 2,
      "byteOffset": 187452,
      "componentType": 5126,
      "count": 2345,
      "max": [
        0.9996578097343445,
        0.9991217851638794,
        0.9994080662727356
      ],
      "min": [
        -0.9996578097343445,
        -0.9996163845062256,
        -0.9999048113822937
      ],
      "type": "VEC3"
    },
    {
      "bufferView": 1,
      "byteOffset": 53104,
      "componentType": 5126,
      "count": 2345,
      "max": [
        0.99169921875,
        0.986846923828125
      ],
      "min": [
        0.00916290283203125,
        0.009277284145355225
      ],
      "type": "VEC2"
    },
    {
      "bufferView": 0,
      "byteOffset": 58872,
      "componentType": 5125,
      "count": 4818,
      "type": "SCALAR"
    }
  ],
  "asset": {
    "extras": {
      "author": "Milan2005 (https://sketchfab.com/Milan2005)",
      "license": "CC-BY-4.0 (http://creativecommons.org/licenses/by/4.0/)",
      "source": "https://sketchfab.com/3d-models/bonky-the-clown-e79712360f8a4c79a8dcbdb940721f0e",
      "title": "bonky the clown"
    },
    "generator": "Sketchfab-16.59.0",
    "version": "2.0"
  },
  "bufferViews": [
    {
      "buffer": 0,
      "byteLength": 78144,
      "name": "floatBufferViews",
      "target": 34963
    },
    {
      "buffer": 0,
      "byteLength": 71864,
      "byteOffset": 78144,
      "byteStride": 8,
      "name": "floatBufferViews",
      "target": 34962
    },
    {
      "buffer": 0,
      "byteLength": 215592,
      "byteOffset": 150008,
      "byteStride": 12,
      "name": "floatBufferViews",
      "target": 34962
    }
  ],
  "buffers": [
    {
      "byteLength": 365600,
      "uri": "scene.bin"
    }
  ],
  "images": [
    {
      "uri": "textures/Material.002_baseColor.png"
    },
    {
      "uri": "textures/Material.001_baseColor.png"
    }
  ],
  "materials": [
    {
      "doubleSided": true,
      "name": "Material.002",
      "pbrMetallicRoughness": {
        "baseColorTexture": {
          "index": 0
        },
        "metallicFactor": 0.0,
        "roughnessFactor": 0.5
      }
    },
    {
      "doubleSided": true,
      "name": "Material.001",
      "pbrMetallicRoughness": {
        "baseColorTexture": {
          "index": 1
        },
        "metallicFactor": 0.0,
        "roughnessFactor": 0.5
      }
    }
  ],
  "meshes": [
    {
      "name": "Object_0",
      "primitives": [
        {
          "attributes": {
            "NORMAL": 1,
            "POSITION": 0,
            "TEXCOORD_0": 2
          },
          "indices": 3,
          "material": 0,
          "mode": 4
        }
      ]
    },
    {
      "name": "Object_1",
      "primitives": [
        {
          "attributes": {
            "NORMAL": 5,
            "POSITION": 4,
            "TEXCOORD_0": 6
          },
          "indices": 7,
          "material": 1,
          "mode": 4
        }
      ]
    }
  ],
  "nodes": [
    {
      "children": [
        1
      ],
      "matrix": [
        0.8619378209114075,
        0.0,
        0.0,
        0.0,
        0.0,
        1.9138864291421586e-16,
        -0.8619378209114075,
        0.0,
        0.0,
        0.8619378209114075,
        1.9138864291421586e-16,
        0.0,
        0.0,
        0.0,
        0.0,
        1.0
      ],
      "name": "Sketchfab_model"
    },
    {
      "children": [
        2
      ],
      "name": "root"
    },
    {
      "children": [
        3,
        5
      ],
      "matrix": [
        1.0,
        0.0,
        0.0,
        0.0,
        0.0,
        2.220446049250313e-16,
        1.0,
        0.0,
        0.0,
        -1.0,
        2.220446049250313e-16,
        0.0,
        0.0,
        0.0,
        0.0,
        1.0
      ],
      "name": "GLTF_SceneRootNode"
    },
    {
      "children": [
        4
      ],
      "matrix": [
        117.23275756835938,
        0.0,
        0.0,
        0.0,
        0.0,
        0.0,
        117.23275756835938,
        0.0,
        0.0,
        -117.23275756835938,
        0.0,
        0.0,
        0.5979363918304443,
        0.12395285069942474,
        0.0,
        1.0
      ],
      "name": "Head_LOD0.001_27"
    },
    {
      "mesh": 0,
      "name": "Object_4"
    },
    {
      "children": [
        6
      ],
      "matrix": [
        117.23275756835938,
        0.0,
        0.0,
        0.0,
        0.0,
        0.0,
        117.23275756835938,
        0.0,
        0.0,
        -117.23275756835938,
        0.0,
        0.0,
        0.5979363918304443,
        0.12395285069942474,
        0.0,
        1.0
      ],
      "name": "Head_LOD0.002_28"
    },
    {
      "mesh": 1,
      "name": "Object_6"
    }
  ],
  "samplers": [
    {
      "magFilter": 9729,
      "minFilter": 9987,
      "wrapS": 10497,
      "wrapT": 10497
    }
  ],
  "scene": 0,
  "scenes": [
    {
      "name": "Sketchfab_Scene",
      "nodes": [
        0
      ]
    }
  ],
  "textures": [
    {
      "sampler": 0,
      "source": 0
    },
    {
      "sampler": 0,
      "source": 1
    }
  ]
}
