{
  "accessors": [
    {
      "bufferView": 2,
      "componentType": 5126,
      "count": 2666,
      "max": [
        29.2905330657959,
        2.6952316761016846,
        29.546846389770508
      ],
      "min": [
        -29.2905330657959,
        -122.61702728271484,
        -44.77745819091797
      ],
      "type": "VEC3"
    },
    {
      "bufferView": 2,
      "byteOffset": 31992,
      "componentType": 5126,
      "count": 2666,
      "max": [
        1.0,
        0.9999721646308899,
        1.0
      ],
      "min": [
        -1.0,
        -1.0,
        -1.0
      ],
      "type": "VEC3"
    },
    {
      "bufferView": 3,
      "componentType": 5126,
      "count": 2666,
      "max": [
        1.0,
        1.0,
        1.0,
        1.0
      ],
      "min": [
        -1.0,
        -0.9999721646308899,
        -1.0,
        1.0
      ],
      "type": "VEC4"
    },
    {
      "bufferView": 1,
      "componentType": 5126,
      "count": 2666,
      "max": [
        0.9955398440361023,
        0.9916185140609741
      ],
      "min": [
        0.002003236673772335,
        0.0017225523479282856
      ],
      "type": "VEC2"
    },
    {
      "bufferView": 1,
      "byteOffset": 21328,
      "componentType": 5126,
      "count": 2666,
      "max": [
        0.9955398440361023,
        0.9916185140609741
      ],
      "min": [
        0.002003236673772335,
        0.0017225523479282856
      ],
      "type": "VEC2"
    },
    {
      "bufferView": 1,
      "byteOffset": 42656,
      "componentType": 5126,
      "count": 2666,
      "max": [
        0.9955398440361023,
        0.9916185140609741
      ],
      "min": [
        0.002003236673772335,
        0.0017225523479282856
      ],
      "type": "VEC2"
    },
    {
      "bufferView": 0,
      "componentType": 5125,
      "count": 4560,
      "type": "SCALAR"
    },
    {
      "bufferView": 2,
      "byteOffset": 63984,
      "componentType": 5126,
      "count": 20,
      "max": [
        1.9326242208480835,
        21.89299774169922,
        5.121091842651367
      ],
      "min": [
        -1.9326242208480835,
        -8.34331785881659e-07,
        -7.491357803344727
      ],
      "type": "VEC3"
    },
    {
      "bufferView": 2,
      "byteOffset": 64224,
      "componentType": 5126,
      "count": 20,
      "max": [
        0.0,
        0.4634340703487396,
        -0.24104496836662292
      ],
      "min": [
        0.0,
        -0.9705139994621277,
        -0.9994745850563049
      ],
      "type": "VEC3"
    },
    {
      "bufferView": 3,
      "byteOffset": 42656,
      "componentType": 5126,
      "count": 20,
      "max": [
        1.0,
        1.316075668000849e-06,
        6.882888214931882e-07,
        1.0
      ],
      "min": [
        1.0,
        0.0,
        0.0,
        1.0
      ],
      "type": "VEC4"
    },
    {
      "bufferView": 1,
      "byteOffset": 63984,
      "componentType": 5126,
      "count": 20,
      "max": [
        0.9928259253501892,
        0.6305755376815796
      ],
      "min": [
        0.8799715638160706,
        0.44141721725463867
      ],
      "type": "VEC2"
    },
    {
      "bufferView": 1,
      "byteOffset": 64144,
      "componentType": 5126,
      "count": 20,
      "max": [
        0.9928259253501892,
        0.6305755376815796
      ],
      "min": [
        0.8799715638160706,
        0.44141721725463867
      ],
      "type": "VEC2"
    },
    {
      "bufferView": 1,
      "byteOffset": 64304,
      "componentType": 5126,
      "count": 20,
      "max": [
        0.9928259253501892,
        0.6305755376815796
      ],
      "min": [
        0.8799715638160706,
        0.44141721725463867
      ],
      "type": "VEC2"
    },
    {
      "bufferView": 0,
      "byteOffset": 18240,
      "componentType": 5125,
      "count": 30,
      "type": "SCALAR"
    }
  ],
  "asset": {
    "extras": {
      "author": "ion_omat (https://sketchfab.com/ion_omat)",
      "license": "CC-BY-4.0 (http://creativecommons.org/licenses/by/4.0/)",
      "source": "https://sketchfab.com/3d-models/arcade-machine-aeaadc92e09842078d464d619ff5864a",
      "title": "Arcade machine"
    },
    "generator": "Sketchfab-12.68.0",
    "version": "2.0"
  },
  "bufferViews": [
    {
      "buffer": 0,
      "byteLength": 18360,
      "name": "floatBufferViews",
      "target": 34963
    },
    {
      "buffer": 0,
      "byteLength": 64464,
      "byteOffset": 18360,
      "byteStride": 8,
      "name": "floatBufferViews",
      "target": 34962
    },
    {
      "buffer": 0,
      "byteLength": 64464,
      "byteOffset": 82824,
      "byteStride": 12,
      "name": "floatBufferViews",
      "target": 34962
    },
    {
      "buffer": 0,
      "byteLength": 42976,
      "byteOffset": 147288,
      "byteStride": 16,
      "name": "floatBufferViews",
      "target": 34962
    }
  ],
  "buffers": [
    {
      "byteLength": 190264,
      "uri": "scene.bin"
    }
  ],
  "extensionsRequired": [
    "KHR_materials_pbrSpecularGlossiness"
  ],
  "extensionsUsed": [
    "KHR_materials_pbrSpecularGlossiness"
  ],
  "images": [
    {
      "uri": "textures/Material_0_diffuse.png"
    },
    {
      "uri": "textures/Material_0_specularGlossiness.png"
    },
    {
      "uri": "textures/Material_0_normal.png"
    }
  ],
  "materials": [
    {
      "doubleSided": true,
      "extensions": {
        "KHR_materials_pbrSpecularGlossiness": {
          "diffuseFactor": [
            1.0,
            1.0,
            1.0,
            1.0
          ],
          "diffuseTexture": {
            "index": 0
          },
          "glossinessFactor": 0.8153582317073171,
          "specularFactor": [
            1.0,
            1.0,
            1.0
          ],
          "specularGlossinessTexture": {
            "index": 1
          }
        }
      },
      "name": "Material_0",
      "normalTexture": {
        "index": 2
      }
    }
  ],
  "meshes": [
    {
      "name": "arcade_machine_Material #0_0",
      "primitives": [
        {
          "attributes": {
            "NORMAL": 1,
            "POSITION": 0,
            "TANGENT": 2,
            "TEXCOORD_0": 3,
            "TEXCOORD_1": 4,
            "TEXCOORD_2": 5
          },
          "indices": 6,
          "material": 0,
          "mode": 4
        }
      ]
    },
    {
      "name": "tickets_Material #0_0",
      "primitives": [
        {
          "attributes": {
            "NORMAL": 8,
            "POSITION": 7,
            "TANGENT": 9,
            "TEXCOORD_0": 10,
            "TEXCOORD_1": 11,
            "TEXCOORD_2": 12
          },
          "indices": 13,
          "material": 0,
          "mode": 4
        }
      ]
    }
  ],
  "nodes": [
    {
      "children": [
        1
      ],
      "matrix": [
        1.0,
        0.0,
        0.0,
        0.0,
        0.0,
        2.220446049250313e-16,
        -1.0,
        0.0,
        0.0,
        1.0,
        2.220446049250313e-16,
        0.0,
        0.0,
        0.0,
        0.0,
        1.0
      ],
      "name": "Sketchfab_model"
    },
    {
      "children": [
        2
      ],
      "matrix": [
        1.0,
        0.0,
        0.0,
        0.0,
        0.0,
        0.0,
        1.0,
        0.0,
        0.0,
        -1.0,
        0.0,
        0.0,
        0.0,
        0.0,
        0.0,
        1.0
      ],
      "name": "Low poly block.fbx"
    },
    {
      "children": [
        3,
        5
      ],
      "name": "RootNode"
    },
    {
      "children": [
        4
      ],
      "matrix": [
        1.0,
        0.0,
        0.0,
        0.0,
        0.0,
        -1.0,
        -1.1924880760967735e-08,
        0.0,
        0.0,
        1.1924880760967735e-08,
        -1.0,
        0.0,
        0.0,
        2.695220947265625,
        -12.909360885620117,
        1.0
      ],
      "name": "arcade_machine"
    },
    {
      "mesh": 0,
      "name": "arcade_machine_Material #0_0"
    },
    {
      "children": [
        6
      ],
      "matrix": [
        1.0,
        0.0,
        0.0,
        0.0,
        0.0,
        -1.0,
        -1.1924880760967735e-08,
        0.0,
        0.0,
        1.1924880760967735e-08,
        -1.0,
        0.0,
        -0.6883909702301025,
        46.39960479736328,
        34.96484375,
        1.0
      ],
      "name": "tickets"
    },
    {
      "mesh": 1,
      "name": "tickets_Material #0_0"
    }
  ],
  "samplers": [
    {
      "magFilter": 9729,
      "minFilter": 9987,
      "wrapS": 10497,
      "wrapT": 10497
    }
  ],
  "scene": 0,
  "scenes": [
    {
      "name": "Sketchfab_Scene",
      "nodes": [
        0
      ]
    }
  ],
  "textures": [
    {
      "sampler": 0,
      "source": 0
    },
    {
      "sampler": 0,
      "source": 1
    },
    {
      "sampler": 0,
      "source": 2
    }
  ]
}
