{
  "accessors": [
    {
      "bufferView": 3,
      "componentType": 5126,
      "count": 56,
      "max": [
        -1.797855257987976,
        -3.8151674270629883,
        4.667850017547607
      ],
      "min": [
        -2.274334192276001,
        -4.321407794952393,
        4.228900909423828
      ],
      "type": "VEC3"
    },
    {
      "bufferView": 3,
      "byteOffset": 672,
      "componentType": 5126,
      "count": 56,
      "max": [
        0.9944660067558289,
        0.9327139854431152,
        0.9942678809165955
      ],
      "min": [
        -0.9944655299186707,
        -0.9327163696289063,
        -0.9942679405212402
      ],
      "type": "VEC3"
    },
    {
      "bufferView": 4,
      "componentType": 5126,
      "count": 56,
      "max": [
        0.9936667680740356,
        0.9839311242103577,
        0.9791321754455566,
        1.0
      ],
      "min": [
        -0.714318573474884,
        -0.7618923783302307,
        -0.9204617738723755,
        1.0
      ],
      "type": "VEC4"
    },
    {
      "bufferView": 2,
      "componentType": 5126,
      "count": 56,
      "max": [
        0.47613605856895447,
        0.25095435976982117
      ],
      "min": [
        0.4516053795814514,
        0.23788820207118988
      ],
      "type": "VEC2"
    },
    {
      "bufferView": 1,
      "componentType": 5125,
      "count": 252,
      "type": "SCALAR"
    },
    {
      "bufferView": 3,
      "byteOffset": 1344,
      "componentType": 5126,
      "count": 1150,
      "max": [
        3.989901065826416,
        2.2321207523345947,
        4.437594890594482
      ],
      "min": [
        -3.989900827407837,
        -8.993345260620117,
        -3.588832378387451
      ],
      "type": "VEC3"
    },
    {
      "bufferView": 3,
      "byteOffset": 15144,
      "componentType": 5126,
      "count": 1150,
      "max": [
        0.9992717504501343,
        0.9995896816253662,
        0.9999929070472717
      ],
      "min": [
        -0.9992717504501343,
        -0.9999575018882751,
        -0.9954120516777039
      ],
      "type": "VEC3"
    },
    {
      "bufferView": 4,
      "byteOffset": 896,
      "componentType": 5126,
      "count": 1150,
      "max": [
        0.9312219023704529,
        0.9791731238365173,
        0.9998152256011963,
        1.0
      ],
      "min": [
        -0.9999893307685852,
        -0.9608920812606812,
        -0.9999454617500305,
        1.0
      ],
      "type": "VEC4"
    },
    {
      "bufferView": 2,
      "byteOffset": 448,
      "componentType": 5126,
      "count": 1150,
      "max": [
        0.9330574870109558,
        0.9458297491073608
      ],
      "min": [
        0.12788830697536469,
        0.0006072525284253061
      ],
      "type": "VEC2"
    },
    {
      "bufferView": 1,
      "byteOffset": 1008,
      "componentType": 5125,
      "count": 5856,
      "type": "SCALAR"
    },
    {
      "bufferView": 3,
      "byteOffset": 28944,
      "componentType": 5126,
      "count": 1224,
      "max": [
        4.526757717132568,
        -5.812512397766113,
        2.2844815254211426
      ],
      "min": [
        -4.526757717132568,
        -15.358194351196289,
        -2.199016571044922
      ],
      "type": "VEC3"
    },
    {
      "bufferView": 3,
      "byteOffset": 43632,
      "componentType": 5126,
      "count": 1224,
      "max": [
        0.9999700784683228,
        0.8829428553581238,
        0.9986696839332581
      ],
      "min": [
        -0.999970018863678,
        -0.9846521615982056,
        -0.9999138712882996
      ],
      "type": "VEC3"
    },
    {
      "bufferView": 4,
      "byteOffset": 19296,
      "componentType": 5126,
      "count": 1224,
      "max": [
        0.9323621392250061,
        0.37664327025413513,
        0.9845026731491089,
        1.0
      ],
      "min": [
        -0.9323611259460449,
        -0.9999973773956299,
        -0.9429054856300354,
        1.0
      ],
      "type": "VEC4"
    },
    {
      "bufferView": 2,
      "byteOffset": 9648,
      "componentType": 5126,
      "count": 1224,
      "max": [
        0.6457920670509338,
        0.49788331985473633
      ],
      "min": [
        0.37396106123924255,
        0.0006072525284253061
      ],
      "type": "VEC2"
    },
    {
      "bufferView": 1,
      "byteOffset": 24432,
      "componentType": 5125,
      "count": 6720,
      "type": "SCALAR"
    },
    {
      "bufferView": 3,
      "byteOffset": 58320,
      "componentType": 5126,
      "count": 4904,
      "max": [
        5.140445709228516,
        -15.114938735961914,
        5.1250996589660645
      ],
      "min": [
        -5.140445709228516,
        -17.44924545288086,
        -1.7363426685333252
      ],
      "type": "VEC3"
    },
    {
      "bufferView": 3,
      "byteOffset": 117168,
      "componentType": 5126,
      "count": 4904,
      "max": [
        0.9997767806053162,
        1.0,
        0.9986732602119446
      ],
      "min": [
        -0.9997767806053162,
        -1.0,
        -0.9986661076545715
      ],
      "type": "VEC3"
    },
    {
      "bufferView": 4,
      "byteOffset": 38880,
      "componentType": 5126,
      "count": 4904,
      "max": [
        1.0,
        0.9973323941230774,
        0.9999800324440002,
        1.0
      ],
      "min": [
        -0.9659639000892639,
        -0.999625563621521,
        -0.9999940991401672,
        -1.0
      ],
      "type": "VEC4"
    },
    {
      "bufferView": 2,
      "byteOffset": 19440,
      "componentType": 5126,
      "count": 4904,
      "max": [
        0.9993927478790283,
        0.948286771774292
      ],
      "min": [
        0.28916895389556885,
        0.0006072728428989649
      ],
      "type": "VEC2"
    },
    {
      "bufferView": 1,
      "byteOffset": 51312,
      "componentType": 5125,
      "count": 26688,
      "type": "SCALAR"
    },
    {
      "bufferView": 3,
      "byteOffset": 176016,
      "componentType": 5126,
      "count": 743,
      "max": [
        4.238326072692871,
        2.542576551437378,
        4.591216564178467
      ],
      "min": [
        -4.238326072692871,
        -6.076684951782227,
        -3.69488525390625
      ],
      "type": "VEC3"
    },
    {
      "bufferView": 3,
      "byteOffset": 184932,
      "componentType": 5126,
      "count": 743,
      "max": [
        0.9977912306785583,
        0.9861363768577576,
        0.9936370253562927
      ],
      "min": [
        -0.9977912902832031,
        -0.997115433216095,
        -0.9881471991539001
      ],
      "type": "VEC3"
    },
    {
      "bufferView": 4,
      "byteOffset": 117344,
      "componentType": 5126,
      "count": 743,
      "max": [
        1.0,
        0.9026972651481628,
        0.9970779418945313,
        1.0
      ],
      "min": [
        -0.9941259026527405,
        -0.8612831234931946,
        -0.9874323010444641,
        1.0
      ],
      "type": "VEC4"
    },
    {
      "bufferView": 2,
      "byteOffset": 58672,
      "componentType": 5126,
      "count": 743,
      "max": [
        0.6954304575920105,
        0.7590766549110413
      ],
      "min": [
        0.0006072525284253061,
        0.0006072525284253061
      ],
      "type": "VEC2"
    },
    {
      "bufferView": 1,
      "byteOffset": 158064,
      "componentType": 5125,
      "count": 3744,
      "type": "SCALAR"
    },
    {
      "bufferView": 3,
      "byteOffset": 193848,
      "componentType": 5126,
      "count": 2394,
      "max": [
        4.268153190612793,
        8.274324417114258,
        4.556207656860352
      ],
      "min": [
        -4.268153190612793,
        1.3105554580688477,
        -1.7998385429382324
      ],
      "type": "VEC3"
    },
    {
      "bufferView": 3,
      "byteOffset": 222576,
      "componentType": 5126,
      "count": 2394,
      "max": [
        0.9971785545349121,
        0.9999991059303284,
        0.9997518658638
      ],
      "min": [
        -0.9971785545349121,
        -0.9999759197235107,
        -0.99998539686203
      ],
      "type": "VEC3"
    },
    {
      "bufferView": 4,
      "byteOffset": 129232,
      "componentType": 5126,
      "count": 2394,
      "max": [
        0.9994465708732605,
        0.9999032020568848,
        0.9933971762657166,
        1.0
      ],
      "min": [
        -0.9999644756317139,
        -0.9999791979789734,
        -0.9999246597290039,
        1.0
      ],
      "type": "VEC4"
    },
    {
      "bufferView": 2,
      "byteOffset": 64616,
      "componentType": 5126,
      "count": 2394,
      "max": [
        0.9177250266075134,
        0.927988588809967
      ],
      "min": [
        0.1278882920742035,
        0.1686563938856125
      ],
      "type": "VEC2"
    },
    {
      "bufferView": 1,
      "byteOffset": 173040,
      "componentType": 5125,
      "count": 12816,
      "type": "SCALAR"
    },
    {
      "bufferView": 3,
      "byteOffset": 251304,
      "componentType": 5126,
      "count": 4212,
      "max": [
        7.1679792404174805,
        1.4899532794952393,
        1.3530713319778442
      ],
      "min": [
        -7.167979717254639,
        -4.909517288208008,
        -2.1585140228271484
      ],
      "type": "VEC3"
    },
    {
      "bufferView": 3,
      "byteOffset": 301848,
      "componentType": 5126,
      "count": 4212,
      "max": [
        0.9992803335189819,
        0.9956933856010437,
        0.9999104738235474
      ],
      "min": [
        -0.9992803335189819,
        -0.9395808577537537,
        -0.9984986186027527
      ],
      "type": "VEC3"
    },
    {
      "bufferView": 4,
      "byteOffset": 167536,
      "componentType": 5126,
      "count": 4212,
      "max": [
        0.9955610632896423,
        0.8393511176109314,
        0.9999909996986389,
        1.0
      ],
      "min": [
        -0.9955611824989319,
        -0.9989897608757019,
        -0.9999909996986389,
        1.0
      ],
      "type": "VEC4"
    },
    {
      "bufferView": 2,
      "byteOffset": 83768,
      "componentType": 5126,
      "count": 4212,
      "max": [
        0.8556451797485352,
        0.8777390122413635
      ],
      "min": [
        0.37396109104156494,
        0.0006072550895623863
      ],
      "type": "VEC2"
    },
    {
      "bufferView": 1,
      "byteOffset": 224304,
      "componentType": 5125,
      "count": 23736,
      "type": "SCALAR"
    },
    {
      "bufferView": 3,
      "byteOffset": 352392,
      "componentType": 5126,
      "count": 1732,
      "max": [
        9.798699378967285,
        -3.048520803451538,
        3.8470823764801025
      ],
      "min": [
        -9.798699378967285,
        -8.413883209228516,
        -1.0472707748413086
      ],
      "type": "VEC3"
    },
    {
      "bufferView": 3,
      "byteOffset": 373176,
      "componentType": 5126,
      "count": 1732,
      "max": [
        0.9974197149276733,
        0.9967641830444336,
        0.9993685483932495
      ],
      "min": [
        -0.9974197149276733,
        -0.9981757998466492,
        -0.9982338547706604
      ],
      "type": "VEC3"
    },
    {
      "bufferView": 4,
      "byteOffset": 234928,
      "componentType": 5126,
      "count": 1732,
      "max": [
        0.9984895586967468,
        0.9997285604476929,
        0.7461454272270203,
        1.0
      ],
      "min": [
        -0.9984894394874573,
        -0.9863032102584839,
        -0.9996771812438965,
        1.0
      ],
      "type": "VEC4"
    },
    {
      "bufferView": 2,
      "byteOffset": 117464,
      "componentType": 5126,
      "count": 1732,
      "max": [
        0.9141281843185425,
        0.8931111693382263
      ],
      "min": [
        0.0006072538089938462,
        0.0006072525284253061
      ],
      "type": "VEC2"
    },
    {
      "bufferView": 1,
      "byteOffset": 319248,
      "componentType": 5125,
      "count": 9168,
      "type": "SCALAR"
    },
    {
      "bufferView": 3,
      "byteOffset": 393960,
      "componentType": 5126,
      "count": 138,
      "max": [
        0.6375601887702942,
        2.482497215270996,
        3.156489133834839
      ],
      "min": [
        -0.6375601887702942,
        1.621169924736023,
        2.036400556564331
      ],
      "type": "VEC3"
    },
    {
      "bufferView": 3,
      "byteOffset": 395616,
      "componentType": 5126,
      "count": 138,
      "max": [
        0.981937825679779,
        0.9638280868530273,
        0.9671902656555176
      ],
      "min": [
        -0.981937825679779,
        -0.9759811758995056,
        -0.9700860381126404
      ],
      "type": "VEC3"
    },
    {
      "bufferView": 4,
      "byteOffset": 262640,
      "componentType": 5126,
      "count": 138,
      "max": [
        0.5105449557304382,
        0.9694701433181763,
        0.9755993485450745,
        1.0
      ],
      "min": [
        -0.4800204634666443,
        -0.9666106104850769,
        -0.9759811162948608,
        1.0
      ],
      "type": "VEC4"
    },
    {
      "bufferView": 2,
      "byteOffset": 131320,
      "componentType": 5126,
      "count": 138,
      "max": [
        0.7870489358901978,
        0.9081367254257202
      ],
      "min": [
        0.3581376075744629,
        0.5840417742729187
      ],
      "type": "VEC2"
    },
    {
      "bufferView": 1,
      "byteOffset": 355920,
      "componentType": 5125,
      "count": 672,
      "type": "SCALAR"
    },
    {
      "bufferView": 3,
      "byteOffset": 397272,
      "componentType": 5126,
      "count": 324,
      "max": [
        1.0418555736541748,
        2.745668888092041,
        3.394653081893921
      ],
      "min": [
        -1.0418555736541748,
        1.802077054977417,
        2.3569421768188477
      ],
      "type": "VEC3"
    },
    {
      "bufferView": 3,
      "byteOffset": 401160,
      "componentType": 5126,
      "count": 324,
      "max": [
        0.9998832941055298,
        0.9241135716438293,
        0.9959668517112732
      ],
      "min": [
        -0.9998832941055298,
        -0.975081741809845,
        -0.9990441799163818
      ],
      "type": "VEC3"
    },
    {
      "bufferView": 4,
      "byteOffset": 264848,
      "componentType": 5126,
      "count": 324,
      "max": [
        0.9990156292915344,
        0.9874359369277954,
        0.24278348684310913,
        1.0
      ],
      "min": [
        -0.9990159869194031,
        -0.6406620144844055,
        -0.9349579811096191,
        1.0
      ],
      "type": "VEC4"
    },
    {
      "bufferView": 2,
      "byteOffset": 132424,
      "componentType": 5126,
      "count": 324,
      "max": [
        0.9995548725128174,
        0.9944892525672913
      ],
      "min": [
        0.313215047121048,
        0.34729284048080444
      ],
      "type": "VEC2"
    },
    {
      "bufferView": 1,
      "byteOffset": 358608,
      "componentType": 5125,
      "count": 1440,
      "type": "SCALAR"
    },
    {
      "bufferView": 3,
      "byteOffset": 405048,
      "componentType": 5126,
      "count": 1014,
      "max": [
        2.8331644535064697,
        2.358842134475708,
        3.343482732772827
      ],
      "min": [
        -2.863615036010742,
        -0.4641472399234772,
        1.6563165187835693
      ],
      "type": "VEC3"
    },
    {
      "bufferView": 3,
      "byteOffset": 417216,
      "componentType": 5126,
      "count": 1014,
      "max": [
        0.9994929432868958,
        0.9726623296737671,
        0.9940070509910583
      ],
      "min": [
        -0.9994929432868958,
        -0.9613121747970581,
        -0.9973242878913879
      ],
      "type": "VEC3"
    },
    {
      "bufferView": 4,
      "byteOffset": 270032,
      "componentType": 5126,
      "count": 1014,
      "max": [
        1.0,
        0.9956492781639099,
        0.9916858077049255,
        1.0
      ],
      "min": [
        -1.0,
        -0.998465359210968,
        -0.9997903108596802,
        1.0
      ],
      "type": "VEC4"
    },
    {
      "bufferView": 2,
      "byteOffset": 135016,
      "componentType": 5126,
      "count": 1014,
      "max": [
        0.9164644479751587,
        0.9351163506507874
      ],
      "min": [
        0.0006072550895623863,
        0.13375823199748993
      ],
      "type": "VEC2"
    },
    {
      "bufferView": 1,
      "byteOffset": 364368,
      "componentType": 5125,
      "count": 4704,
      "type": "SCALAR"
    },
    {
      "bufferView": 3,
      "byteOffset": 429384,
      "componentType": 5126,
      "count": 68,
      "max": [
        0.9481804370880127,
        3.7575881481170654,
        0.5368465781211853
      ],
      "min": [
        -0.9316674470901489,
        1.4185031652450562,
        -1.4416120052337646
      ],
      "type": "VEC3"
    },
    {
      "bufferView": 3,
      "byteOffset": 430200,
      "componentType": 5126,
      "count": 68,
      "max": [
        0.999988853931427,
        0.9067628383636475,
        0.9996992349624634
      ],
      "min": [
        -0.999988853931427,
        -0.9999791383743286,
        -0.9993746876716614
      ],
      "type": "VEC3"
    },
    {
      "bufferView": 4,
      "byteOffset": 286256,
      "componentType": 5126,
      "count": 68,
      "max": [
        0.975953996181488,
        0.8037360906600952,
        0.6142338514328003,
        1.0
      ],
      "min": [
        -0.9686784744262695,
        -0.9996992349624634,
        -0.843977689743042,
        1.0
      ],
      "type": "VEC4"
    },
    {
      "bufferView": 2,
      "byteOffset": 143128,
      "componentType": 5126,
      "count": 68,
      "max": [
        0.8688170313835144,
        0.6105281114578247
      ],
      "min": [
        0.12788830697536469,
        0.16865640878677368
      ],
      "type": "VEC2"
    },
    {
      "bufferView": 1,
      "byteOffset": 383184,
      "componentType": 5125,
      "count": 240,
      "type": "SCALAR"
    },
    {
      "bufferView": 3,
      "byteOffset": 431016,
      "componentType": 5126,
      "count": 108,
      "max": [
        0.9125293493270874,
        2.915506362915039,
        3.7214462757110596
      ],
      "min": [
        -0.9125293493270874,
        2.307068347930908,
        3.39650297164917
      ],
      "type": "VEC3"
    },
    {
      "bufferView": 3,
      "byteOffset": 432312,
      "componentType": 5126,
      "count": 108,
      "max": [
        0.9947683811187744,
        0.9215086698532104,
        0.9772124886512756
      ],
      "min": [
        -0.9947683811187744,
        -0.893530011177063,
        -0.9964298605918884
      ],
      "type": "VEC3"
    },
    {
      "bufferView": 4,
      "byteOffset": 287344,
      "componentType": 5126,
      "count": 108,
      "max": [
        0.9995511770248413,
        0.8504791855812073,
        0.048737067729234695,
        1.0
      ],
      "min": [
        -0.9995511174201965,
        -0.7135899662971497,
        -0.9859652519226074,
        1.0
      ],
      "type": "VEC4"
    },
    {
      "bufferView": 2,
      "byteOffset": 143672,
      "componentType": 5126,
      "count": 108,
      "max": [
        0.9430873990058899,
        0.9437042474746704
      ],
      "min": [
        0.6265381574630737,
        0.5840417742729187
      ],
      "type": "VEC2"
    },
    {
      "bufferView": 1,
      "byteOffset": 384144,
      "componentType": 5125,
      "count": 480,
      "type": "SCALAR"
    },
    {
      "bufferView": 3,
      "byteOffset": 433608,
      "componentType": 5126,
      "count": 114,
      "max": [
        1.0602055788040161,
        -4.71314001083374,
        -2.546034812927246
      ],
      "min": [
        -1.0602055788040161,
        -7.276968955993652,
        -4.8065409660339355
      ],
      "type": "VEC3"
    },
    {
      "bufferView": 3,
      "byteOffset": 434976,
      "componentType": 5126,
      "count": 114,
      "max": [
        0.9993946552276611,
        0.9721660614013672,
        0.9996082782745361
      ],
      "min": [
        -0.9993946552276611,
        -0.9933558106422424,
        -0.9935184121131897
      ],
      "type": "VEC3"
    },
    {
      "bufferView": 4,
      "byteOffset": 289072,
      "componentType": 5126,
      "count": 114,
      "max": [
        0.9011841416358948,
        0.9882705807685852,
        0.8872154355049133,
        1.0
      ],
      "min": [
        -0.9925635457038879,
        -0.9609971642494202,
        -0.999615490436554,
        1.0
      ],
      "type": "VEC4"
    },
    {
      "bufferView": 2,
      "byteOffset": 144536,
      "componentType": 5126,
      "count": 114,
      "max": [
        0.7578015923500061,
        0.7895070910453796
      ],
      "min": [
        0.5108997225761414,
        0.1686563938856125
      ],
      "type": "VEC2"
    },
    {
      "bufferView": 1,
      "byteOffset": 386064,
      "componentType": 5125,
      "count": 576,
      "type": "SCALAR"
    },
    {
      "bufferView": 3,
      "byteOffset": 436344,
      "componentType": 5126,
      "count": 199,
      "max": [
        1.170304775238037,
        10.086051940917969,
        2.3639931678771973
      ],
      "min": [
        -2.151191473007202,
        7.268537998199463,
        -0.9750851392745972
      ],
      "type": "VEC3"
    },
    {
      "bufferView": 3,
      "byteOffset": 438732,
      "componentType": 5126,
      "count": 199,
      "max": [
        0.9993141293525696,
        0.9971979260444641,
        0.9998430609703064
      ],
      "min": [
        -0.9980124831199646,
        -0.9865372776985168,
        -0.9964038133621216
      ],
      "type": "VEC3"
    },
    {
      "bufferView": 4,
      "byteOffset": 290896,
      "componentType": 5126,
      "count": 199,
      "max": [
        0.9720245599746704,
        0.9972237348556519,
        0.9875351786613464,
        1.0
      ],
      "min": [
        -0.9883881211280823,
        -0.9149171113967896,
        -0.9514347910881042,
        1.0
      ],
      "type": "VEC4"
    },
    {
      "bufferView": 2,
      "byteOffset": 145448,
      "componentType": 5126,
      "count": 199,
      "max": [
        0.9724956750869751,
        0.8414468765258789
      ],
      "min": [
        0.0004450854321476072,
        0.0004450854321476072
      ],
      "type": "VEC2"
    },
    {
      "bufferView": 2,
      "byteOffset": 147040,
      "componentType": 5126,
      "count": 199,
      "max": [
        0.9724956750869751,
        0.8414468765258789
      ],
      "min": [
        0.0004450854321476072,
        0.0004450854321476072
      ],
      "type": "VEC2"
    },
    {
      "bufferView": 2,
      "byteOffset": 148632,
      "componentType": 5126,
      "count": 199,
      "max": [
        0.9724956750869751,
        0.8414468765258789
      ],
      "min": [
        0.0004450854321476072,
        0.0004450854321476072
      ],
      "type": "VEC2"
    },
    {
      "bufferView": 2,
      "byteOffset": 150224,
      "componentType": 5126,
      "count": 199,
      "max": [
        0.9724956750869751,
        0.8414468765258789
      ],
      "min": [
        0.0004450854321476072,
        0.0004450854321476072
      ],
      "type": "VEC2"
    },
    {
      "bufferView": 1,
      "byteOffset": 388368,
      "componentType": 5125,
      "count": 900,
      "type": "SCALAR"
    },
    {
      "bufferView": 3,
      "byteOffset": 441120,
      "componentType": 5126,
      "count": 228,
      "max": [
        1.7028756141662598,
        6.646769046783447,
        3.0475738048553467
      ],
      "min": [
        -1.7028756141662598,
        6.383543014526367,
        2.665816307067871
      ],
      "type": "VEC3"
    },
    {
      "bufferView": 3,
      "byteOffset": 443856,
      "componentType": 5126,
      "count": 228,
      "max": [
        0.9448118805885315,
        0.9938182830810547,
        0.9929182529449463
      ],
      "min": [
        -0.9448114037513733,
        -0.9942189455032349,
        -0.9539891481399536
      ],
      "type": "VEC3"
    },
    {
      "bufferView": 4,
      "byteOffset": 294080,
      "componentType": 5126,
      "count": 228,
      "max": [
        0.7277553677558899,
        0.12216271460056305,
        0.9988676309585571,
        1.0
      ],
      "min": [
        -0.7277542948722839,
        -0.9953332543373108,
        -0.9736754894256592,
        1.0
      ],
      "type": "VEC4"
    },
    {
      "bufferView": 2,
      "byteOffset": 151816,
      "componentType": 5126,
      "count": 228,
      "max": [
        0.9557660818099976,
        0.9002203345298767
      ],
      "min": [
        0.5809116363525391,
        0.34729287028312683
      ],
      "type": "VEC2"
    },
    {
      "bufferView": 2,
      "byteOffset": 153640,
      "componentType": 5126,
      "count": 228,
      "max": [
        0.9557660818099976,
        0.9002203345298767
      ],
      "min": [
        0.5809116363525391,
        0.34729287028312683
      ],
      "type": "VEC2"
    },
    {
      "bufferView": 2,
      "byteOffset": 155464,
      "componentType": 5126,
      "count": 228,
      "max": [
        0.9557660818099976,
        0.9002203345298767
      ],
      "min": [
        0.5809116363525391,
        0.34729287028312683
      ],
      "type": "VEC2"
    },
    {
      "bufferView": 2,
      "byteOffset": 157288,
      "componentType": 5126,
      "count": 228,
      "max": [
        0.9557660818099976,
        0.9002203345298767
      ],
      "min": [
        0.5809116363525391,
        0.34729287028312683
      ],
      "type": "VEC2"
    },
    {
      "bufferView": 1,
      "byteOffset": 391968,
      "componentType": 5125,
      "count": 1056,
      "type": "SCALAR"
    },
    {
      "bufferView": 3,
      "byteOffset": 446592,
      "componentType": 5126,
      "count": 90,
      "max": [
        1.2165011167526245,
        8.968356132507324,
        0.6917773485183716
      ],
      "min": [
        0.2675239145755768,
        7.8396430015563965,
        0.4206502437591553
      ],
      "type": "VEC3"
    },
    {
      "bufferView": 3,
      "byteOffset": 447672,
      "componentType": 5126,
      "count": 90,
      "max": [
        0.9993731379508972,
        0.9867163896560669,
        0.9998654127120972
      ],
      "min": [
        -0.9912819862365723,
        -0.9862026572227478,
        -0.9998654127120972
      ],
      "type": "VEC3"
    },
    {
      "bufferView": 4,
      "byteOffset": 297728,
      "componentType": 5126,
      "count": 90,
      "max": [
        0.9762210249900818,
        0.9872159361839294,
        0.9999998807907104,
        1.0
      ],
      "min": [
        -0.9850849509239197,
        -0.9925540089607239,
        -0.9997024536132813,
        1.0
      ],
      "type": "VEC4"
    },
    {
      "bufferView": 2,
      "byteOffset": 159112,
      "componentType": 5126,
      "count": 90,
      "max": [
        0.892846405506134,
        0.7581629753112793
      ],
      "min": [
        0.7879390716552734,
        0.5348612666130066
      ],
      "type": "VEC2"
    },
    {
      "bufferView": 2,
      "byteOffset": 159832,
      "componentType": 5126,
      "count": 90,
      "max": [
        0.892846405506134,
        0.7581629753112793
      ],
      "min": [
        0.7879390716552734,
        0.5348612666130066
      ],
      "type": "VEC2"
    },
    {
      "bufferView": 2,
      "byteOffset": 160552,
      "componentType": 5126,
      "count": 90,
      "max": [
        0.892846405506134,
        0.7581629753112793
      ],
      "min": [
        0.7879390716552734,
        0.5348612666130066
      ],
      "type": "VEC2"
    },
    {
      "bufferView": 2,
      "byteOffset": 161272,
      "componentType": 5126,
      "count": 90,
      "max": [
        0.892846405506134,
        0.7581629753112793
      ],
      "min": [
        0.7879390716552734,
        0.5348612666130066
      ],
      "type": "VEC2"
    },
    {
      "bufferView": 1,
      "byteOffset": 396192,
      "componentType": 5125,
      "count": 408,
      "type": "SCALAR"
    },
    {
      "bufferView": 3,
      "byteOffset": 448752,
      "componentType": 5126,
      "count": 608,
      "max": [
        1.732763409614563,
        9.603463172912598,
        1.2556943893432617
      ],
      "min": [
        0.8540641665458679,
        8.080625534057617,
        -0.11369633674621582
      ],
      "type": "VEC3"
    },
    {
      "bufferView": 3,
      "byteOffset": 456048,
      "componentType": 5126,
      "count": 608,
      "max": [
        0.9923872351646423,
        0.9992513656616211,
        0.9738137722015381
      ],
      "min": [
        -0.9930701851844788,
        -0.9992116689682007,
        -0.964427649974823
      ],
      "type": "VEC3"
    },
    {
      "bufferView": 4,
      "byteOffset": 299168,
      "componentType": 5126,
      "count": 608,
      "max": [
        0.9977541565895081,
        0.9574798941612244,
        0.9991142153739929,
        1.0
      ],
      "min": [
        -0.999055802822113,
        -0.9981756806373596,
        -0.9907943606376648,
        1.0
      ],
      "type": "VEC4"
    },
    {
      "bufferView": 2,
      "byteOffset": 161992,
      "componentType": 5126,
      "count": 608,
      "max": [
        0.9519680142402649,
        0.9674546718597412
      ],
      "min": [
        0.0004450854321476072,
        0.34729287028312683
      ],
      "type": "VEC2"
    },
    {
      "bufferView": 2,
      "byteOffset": 166856,
      "componentType": 5126,
      "count": 608,
      "max": [
        0.9519680142402649,
        0.9674546718597412
      ],
      "min": [
        0.0004450854321476072,
        0.34729287028312683
      ],
      "type": "VEC2"
    },
    {
      "bufferView": 2,
      "byteOffset": 171720,
      "componentType": 5126,
      "count": 608,
      "max": [
        0.9519680142402649,
        0.9674546718597412
      ],
      "min": [
        0.0004450854321476072,
        0.34729287028312683
      ],
      "type": "VEC2"
    },
    {
      "bufferView": 2,
      "byteOffset": 176584,
      "componentType": 5126,
      "count": 608,
      "max": [
        0.9519680142402649,
        0.9674546718597412
      ],
      "min": [
        0.0004450854321476072,
        0.34729287028312683
      ],
      "type": "VEC2"
    },
    {
      "bufferView": 1,
      "byteOffset": 397824,
      "componentType": 5125,
      "count": 2832,
      "type": "SCALAR"
    },
    {
      "bufferView": 3,
      "byteOffset": 463344,
      "componentType": 5126,
      "count": 290,
      "max": [
        1.8702894449234009,
        5.817389011383057,
        3.387195110321045
      ],
      "min": [
        0.4891921281814575,
        4.434050559997559,
        2.006941080093384
      ],
      "type": "VEC3"
    },
    {
      "bufferView": 3,
      "byteOffset": 466824,
      "componentType": 5126,
      "count": 290,
      "max": [
        0.9975885152816772,
        0.9990269541740417,
        0.9958912134170532
      ],
      "min": [
        -0.997588574886322,
        -0.9990269541740417,
        -0.9973415732383728
      ],
      "type": "VEC3"
    },
    {
      "bufferView": 2,
      "byteOffset": 181448,
      "componentType": 5126,
      "count": 290,
      "max": [
        0.9998994469642639,
        0.5075555443763733
      ],
      "min": [
        0.00010053151345346123,
        0.00010053151345346123
      ],
      "type": "VEC2"
    },
    {
      "bufferView": 2,
      "byteOffset": 183768,
      "componentType": 5126,
      "count": 290,
      "max": [
        0.9998994469642639,
        0.5075555443763733
      ],
      "min": [
        0.00010053151345346123,
        0.00010053151345346123
      ],
      "type": "VEC2"
    },
    {
      "bufferView": 1,
      "byteOffset": 409152,
      "componentType": 5125,
      "count": 1632,
      "type": "SCALAR"
    },
    {
      "bufferView": 3,
      "byteOffset": 470304,
      "componentType": 5126,
      "count": 290,
      "max": [
        -0.47480326890945435,
        5.822731018066406,
        3.3954262733459473
      ],
      "min": [
        -1.8446540832519531,
        4.440932273864746,
        2.015364170074463
      ],
      "type": "VEC3"
    },
    {
      "bufferView": 3,
      "byteOffset": 473784,
      "componentType": 5126,
      "count": 290,
      "max": [
        0.9895686507225037,
        0.998475193977356,
        0.9975510239601135
      ],
      "min": [
        -0.9895687699317932,
        -0.9984752535820007,
        -0.9975510835647583
      ],
      "type": "VEC3"
    },
    {
      "bufferView": 2,
      "byteOffset": 186088,
      "componentType": 5126,
      "count": 290,
      "max": [
        0.9998994469642639,
        0.5075555443763733
      ],
      "min": [
        0.00010053151345346123,
        0.00010053151345346123
      ],
      "type": "VEC2"
    },
    {
      "bufferView": 2,
      "byteOffset": 188408,
      "componentType": 5126,
      "count": 290,
      "max": [
        0.9998994469642639,
        0.5075555443763733
      ],
      "min": [
        0.00010053151345346123,
        0.00010053151345346123
      ],
      "type": "VEC2"
    },
    {
      "bufferView": 1,
      "byteOffset": 415680,
      "componentType": 5125,
      "count": 1632,
      "type": "SCALAR"
    },
    {
      "bufferView": 3,
      "byteOffset": 477264,
      "componentType": 5126,
      "count": 24,
      "max": [
        1.0,
        1.0,
        1.0
      ],
      "min": [
        -1.0,
        -1.0,
        -1.0
      ],
      "type": "VEC3"
    },
    {
      "bufferView": 3,
      "byteOffset": 477552,
      "componentType": 5126,
      "count": 24,
      "max": [
        1.0,
        1.0,
        1.0
      ],
      "min": [
        -1.0,
        -1.0,
        -1.0
      ],
      "type": "VEC3"
    },
    {
      "bufferView": 2,
      "byteOffset": 190728,
      "componentType": 5126,
      "count": 24,
      "max": [
        0.875,
        1.0
      ],
      "min": [
        0.125,
        0.0
      ],
      "type": "VEC2"
    },
    {
      "bufferView": 1,
      "byteOffset": 422208,
      "componentType": 5125,
      "count": 36,
      "type": "SCALAR"
    },
    {
      "bufferView": 3,
      "byteOffset": 477840,
      "componentType": 5126,
      "count": 4,
      "max": [
        1.0,
        0.0,
        1.0
      ],
      "min": [
        -1.0,
        0.0,
        -1.0
      ],
      "type": "VEC3"
    },
    {
      "bufferView": 3,
      "byteOffset": 477888,
      "componentType": 5126,
      "count": 4,
      "max": [
        0.0,
        1.0,
        -0.0
      ],
      "min": [
        0.0,
        1.0,
        -0.0
      ],
      "type": "VEC3"
    },
    {
      "bufferView": 2,
      "byteOffset": 190920,
      "componentType": 5126,
      "count": 4,
      "max": [
        1.0,
        1.0
      ],
      "min": [
        0.0,
        0.0
      ],
      "type": "VEC2"
    },
    {
      "bufferView": 1,
      "byteOffset": 422352,
      "componentType": 5125,
      "count": 6,
      "type": "SCALAR"
    },
    {
      "bufferView": 5,
      "componentType": 5126,
      "count": 53,
      "max": [
        1.0,
        0.23992885649204254,
        0.07717175036668777,
        0.0,
        0.21920499205589294,
        1.0,
        0.27646759152412415,
        0.0,
        0.11248493939638138,
        0.27648138999938965,
        1.0,
        0.0,
        2.1726293563842773,
        4.738226413726807,
        4.5147881507873535,
        1.0
      ],
      "min": [
        -0.27666613459587097,
        -0.23992887139320374,
        -0.0771716833114624,
        0.0,
        -0.21920497715473175,
        -0.2762548327445984,
        -0.27539339661598206,
        0.0,
        -0.11248493939638138,
        -0.256076455116272,
        -0.1648467630147934,
        0.0,
        -2.172628402709961,
        -3.023477792739868,
        -3.953854560852051,
        1.0
      ],
      "type": "MAT4"
    },
    {
      "bufferView": 0,
      "componentType": 5123,
      "count": 56,
      "type": "VEC4"
    },
    {
      "bufferView": 4,
      "byteOffset": 308896,
      "componentType": 5126,
      "count": 56,
      "max": [
        0.7417323589324951,
        0.21123002469539642,
        0.09184958785772324,
        0.0
      ],
      "min": [
        0.7224350571632385,
        0.16641810536384583,
        0.06633496284484863,
        0.0
      ],
      "type": "VEC4"
    },
    {
      "bufferView": 0,
      "byteOffset": 448,
      "componentType": 5123,
      "count": 1150,
      "type": "VEC4"
    },
    {
      "bufferView": 4,
      "byteOffset": 309792,
      "componentType": 5126,
      "count": 1150,
      "max": [
        1.0,
        0.4961019456386566,
        0.1735062599182129,
        0.11553999036550522
      ],
      "min": [
        0.45992323756217957,
        0.0,
        0.0,
        0.0
      ],
      "type": "VEC4"
    },
    {
      "bufferView": 0,
      "byteOffset": 9648,
      "componentType": 5123,
      "count": 1224,
      "type": "VEC4"
    },
    {
      "bufferView": 4,
      "byteOffset": 328192,
      "componentType": 5126,
      "count": 1224,
      "max": [
        1.0,
        0.4944615960121155,
        0.0,
        0.0
      ],
      "min": [
        0.5055384039878845,
        0.0,
        0.0,
        0.0
      ],
      "type": "VEC4"
    },
    {
      "bufferView": 0,
      "byteOffset": 19440,
      "componentType": 5123,
      "count": 4904,
      "type": "VEC4"
    },
    {
      "bufferView": 4,
      "byteOffset": 347776,
      "componentType": 5126,
      "count": 4904,
      "max": [
        1.0,
        0.048838645219802856,
        0.0,
        0.0
      ],
      "min": [
        0.9511613845825195,
        0.0,
        0.0,
        0.0
      ],
      "type": "VEC4"
    },
    {
      "bufferView": 0,
      "byteOffset": 58672,
      "componentType": 5123,
      "count": 743,
      "type": "VEC4"
    },
    {
      "bufferView": 4,
      "byteOffset": 426240,
      "componentType": 5126,
      "count": 743,
      "max": [
        0.8245553970336914,
        0.47391095757484436,
        0.1735062599182129,
        0.06938467919826508
      ],
      "min": [
        0.4813900589942932,
        0.06541913002729416,
        0.0,
        0.0
      ],
      "type": "VEC4"
    },
    {
      "bufferView": 0,
      "byteOffset": 64616,
      "componentType": 5123,
      "count": 2394,
      "type": "VEC4"
    },
    {
      "bufferView": 4,
      "byteOffset": 438128,
      "componentType": 5126,
      "count": 2394,
      "max": [
        1.0,
        0.49165573716163635,
        0.14876897633075714,
        0.0
      ],
      "min": [
        0.508344292640686,
        0.0,
        0.0,
        0.0
      ],
      "type": "VEC4"
    },
    {
      "bufferView": 0,
      "byteOffset": 83768,
      "componentType": 5123,
      "count": 4212,
      "type": "VEC4"
    },
    {
      "bufferView": 4,
      "byteOffset": 476432,
      "componentType": 5126,
      "count": 4212,
      "max": [
        1.0,
        0.4999028742313385,
        0.0,
        0.0
      ],
      "min": [
        0.5000970959663391,
        0.0,
        0.0,
        0.0
      ],
      "type": "VEC4"
    },
    {
      "bufferView": 0,
      "byteOffset": 117464,
      "componentType": 5123,
      "count": 1732,
      "type": "VEC4"
    },
    {
      "bufferView": 4,
      "byteOffset": 543824,
      "componentType": 5126,
      "count": 1732,
      "max": [
        1.0,
        0.49490886926651,
        0.30697932839393616,
        0.20038475096225739
      ],
      "min": [
        0.30676594376564026,
        0.0,
        0.0,
        0.0
      ],
      "type": "VEC4"
    },
    {
      "bufferView": 0,
      "byteOffset": 131320,
      "componentType": 5123,
      "count": 138,
      "type": "VEC4"
    },
    {
      "bufferView": 4,
      "byteOffset": 571536,
      "componentType": 5126,
      "count": 138,
      "max": [
        1.0,
        0.0,
        0.0,
        0.0
      ],
      "min": [
        1.0,
        0.0,
        0.0,
        0.0
      ],
      "type": "VEC4"
    },
    {
      "bufferView": 0,
      "byteOffset": 132424,
      "componentType": 5123,
      "count": 324,
      "type": "VEC4"
    },
    {
      "bufferView": 4,
      "byteOffset": 573744,
      "componentType": 5126,
      "count": 324,
      "max": [
        1.0,
        0.0,
        0.0,
        0.0
      ],
      "min": [
        1.0,
        0.0,
        0.0,
        0.0
      ],
      "type": "VEC4"
    },
    {
      "bufferView": 0,
      "byteOffset": 135016,
      "componentType": 5123,
      "count": 1014,
      "type": "VEC4"
    },
    {
      "bufferView": 4,
      "byteOffset": 578928,
      "componentType": 5126,
      "count": 1014,
      "max": [
        1.0,
        0.0,
        0.0,
        0.0
      ],
      "min": [
        1.0,
        0.0,
        0.0,
        0.0
      ],
      "type": "VEC4"
    },
    {
      "bufferView": 0,
      "byteOffset": 143128,
      "componentType": 5123,
      "count": 68,
      "type": "VEC4"
    },
    {
      "bufferView": 4,
      "byteOffset": 595152,
      "componentType": 5126,
      "count": 68,
      "max": [
        1.0,
        0.3779112994670868,
        0.0,
        0.0
      ],
      "min": [
        0.6220886707305908,
        0.0,
        0.0,
        0.0
      ],
      "type": "VEC4"
    },
    {
      "bufferView": 0,
      "byteOffset": 143672,
      "componentType": 5123,
      "count": 108,
      "type": "VEC4"
    },
    {
      "bufferView": 4,
      "byteOffset": 596240,
      "componentType": 5126,
      "count": 108,
      "max": [
        1.0,
        0.0,
        0.0,
        0.0
      ],
      "min": [
        1.0,
        0.0,
        0.0,
        0.0
      ],
      "type": "VEC4"
    },
    {
      "bufferView": 0,
      "byteOffset": 144536,
      "componentType": 5123,
      "count": 114,
      "type": "VEC4"
    },
    {
      "bufferView": 4,
      "byteOffset": 597968,
      "componentType": 5126,
      "count": 114,
      "max": [
        1.0,
        0.0,
        0.0,
        0.0
      ],
      "min": [
        1.0,
        0.0,
        0.0,
        0.0
      ],
      "type": "VEC4"
    }
  ],
  "asset": {
    "extras": {
      "author": "☕Mr. DaBois Official☕ YT (https://sketchfab.com/DaBois22)",
      "license": "CC-BY-4.0 (http://creativecommons.org/licenses/by/4.0/)",
      "source": "https://sketchfab.com/3d-models/circus-freddy-mimic-costume-4c2100f8e2914c0abcc73cf0015f2daa",
      "title": "Circus Freddy Mimic Costume"
    },
    "generator": "Sketchfab-16.16.0",
    "version": "2.0"
  },
  "bufferViews": [
    {
      "buffer": 0,
      "byteLength": 145448,
      "byteStride": 8,
      "name": "shortBufferViews",
      "target": 34962
    },
    {
      "buffer": 0,
      "byteLength": 422376,
      "byteOffset": 145448,
      "name": "floatBufferViews",
      "target": 34963
    },
    {
      "buffer": 0,
      "byteLength": 190952,
      "byteOffset": 567824,
      "byteStride": 8,
      "name": "floatBufferViews",
      "target": 34962
    },
    {
      "buffer": 0,
      "byteLength": 477936,
      "byteOffset": 758776,
      "byteStride": 12,
      "name": "floatBufferViews",
      "target": 34962
    },
    {
      "buffer": 0,
      "byteLength": 599792,
      "byteOffset": 1236712,
      "byteStride": 16,
      "name": "floatBufferViews",
      "target": 34962
    },
    {
      "buffer": 0,
      "byteLength": 3392,
      "byteOffset": 1836504,
      "name": "floatBufferViews"
    }
  ],
  "buffers": [
    {
      "byteLength": 1839896,
      "uri": "scene.bin"
    }
  ],
  "images": [
    {
      "uri": "textures/Material_baseColor.png"
    },
    {
      "uri": "textures/Material_metallicRoughness.png"
    },
    {
      "uri": "textures/Material_normal.png"
    },
    {
      "uri": "textures/Material.001_baseColor.png"
    },
    {
      "uri": "textures/Material.001_metallicRoughness.png"
    },
    {
      "uri": "textures/Material.001_normal.png"
    },
    {
      "uri": "textures/Material.002_baseColor.png"
    },
    {
      "uri": "textures/Material.002_emissive.png"
    },
    {
      "uri": "textures/Material.005_baseColor.png"
    }
  ],
  "materials": [
    {
      "doubleSided": true,
      "name": "Material",
      "normalTexture": {
        "index": 2
      },
      "pbrMetallicRoughness": {
        "baseColorTexture": {
          "index": 0
        },
        "metallicRoughnessTexture": {
          "index": 1
        }
      }
    },
    {
      "doubleSided": true,
      "name": "Material.001",
      "normalTexture": {
        "index": 5
      },
      "pbrMetallicRoughness": {
        "baseColorTexture": {
          "index": 3
        },
        "metallicRoughnessTexture": {
          "index": 4
        }
      }
    },
    {
      "doubleSided": true,
      "emissiveFactor": [
        1.0,
        1.0,
        1.0
      ],
      "emissiveTexture": {
        "index": 7
      },
      "name": "Material.002",
      "pbrMetallicRoughness": {
        "baseColorTexture": {
          "index": 6
        },
        "metallicFactor": 0.0,
        "roughnessFactor": 0.612727
      }
    },
    {
      "doubleSided": true,
      "name": "Material.007"
    },
    {
      "alphaMode": "BLEND",
      "name": "Material.005",
      "pbrMetallicRoughness": {
        "baseColorTexture": {
          "index": 8
        },
        "metallicFactor": 0.0
      }
    }
  ],
  "meshes": [
    {
      "name": "Object_0",
      "primitives": [
        {
          "attributes": {
            "JOINTS_0": 121,
            "NORMAL": 1,
            "POSITION": 0,
            "TANGENT": 2,
            "TEXCOORD_0": 3,
            "TEXCOORD_1": 3,
            "TEXCOORD_2": 3,
            "TEXCOORD_3": 3,
            "WEIGHTS_0": 122
          },
          "indices": 4,
          "material": 0,
          "mode": 4
        }
      ]
    },
    {
      "name": "Object_1",
      "primitives": [
        {
          "attributes": {
            "JOINTS_0": 123,
            "NORMAL": 6,
            "POSITION": 5,
            "TANGENT": 7,
            "TEXCOORD_0": 8,
            "TEXCOORD_1": 8,
            "TEXCOORD_2": 8,
            "TEXCOORD_3": 8,
            "WEIGHTS_0": 124
          },
          "indices": 9,
          "material": 0,
          "mode": 4
        }
      ]
    },
    {
      "name": "Object_2",
      "primitives": [
        {
          "attributes": {
            "JOINTS_0": 125,
            "NORMAL": 11,
            "POSITION": 10,
            "TANGENT": 12,
            "TEXCOORD_0": 13,
            "TEXCOORD_1": 13,
            "TEXCOORD_2": 13,
            "TEXCOORD_3": 13,
            "WEIGHTS_0": 126
          },
          "indices": 14,
          "material": 0,
          "mode": 4
        }
      ]
    },
    {
      "name": "Object_3",
      "primitives": [
        {
          "attributes": {
            "JOINTS_0": 127,
            "NORMAL": 16,
            "POSITION": 15,
            "TANGENT": 17,
            "TEXCOORD_0": 18,
            "TEXCOORD_1": 18,
            "TEXCOORD_2": 18,
            "TEXCOORD_3": 18,
            "WEIGHTS_0": 128
          },
          "indices": 19,
          "material": 0,
          "mode": 4
        }
      ]
    },
    {
      "name": "Object_4",
      "primitives": [
        {
          "attributes": {
            "JOINTS_0": 129,
            "NORMAL": 21,
            "POSITION": 20,
            "TANGENT": 22,
            "TEXCOORD_0": 23,
            "TEXCOORD_1": 23,
            "TEXCOORD_2": 23,
            "TEXCOORD_3": 23,
            "WEIGHTS_0": 130
          },
          "indices": 24,
          "material": 0,
          "mode": 4
        }
      ]
    },
    {
      "name": "Object_5",
      "primitives": [
        {
          "attributes": {
            "JOINTS_0": 131,
            "NORMAL": 26,
            "POSITION": 25,
            "TANGENT": 27,
            "TEXCOORD_0": 28,
            "TEXCOORD_1": 28,
            "TEXCOORD_2": 28,
            "TEXCOORD_3": 28,
            "WEIGHTS_0": 132
          },
          "indices": 29,
          "material": 0,
          "mode": 4
        }
      ]
    },
    {
      "name": "Object_6",
      "primitives": [
        {
          "attributes": {
            "JOINTS_0": 133,
            "NORMAL": 31,
            "POSITION": 30,
            "TANGENT": 32,
            "TEXCOORD_0": 33,
            "TEXCOORD_1": 33,
            "TEXCOORD_2": 33,
            "TEXCOORD_3": 33,
            "WEIGHTS_0": 134
          },
          "indices": 34,
          "material": 0,
          "mode": 4
        }
      ]
    },
    {
      "name": "Object_7",
      "primitives": [
        {
          "attributes": {
            "JOINTS_0": 135,
            "NORMAL": 36,
            "POSITION": 35,
            "TANGENT": 37,
            "TEXCOORD_0": 38,
            "TEXCOORD_1": 38,
            "TEXCOORD_2": 38,
            "TEXCOORD_3": 38,
            "WEIGHTS_0": 136
          },
          "indices": 39,
          "material": 0,
          "mode": 4
        }
      ]
    },
    {
      "name": "Object_8",
      "primitives": [
        {
          "attributes": {
            "JOINTS_0": 137,
            "NORMAL": 41,
            "POSITION": 40,
            "TANGENT": 42,
            "TEXCOORD_0": 43,
            "TEXCOORD_1": 43,
            "TEXCOORD_2": 43,
            "TEXCOORD_3": 43,
            "WEIGHTS_0": 138
          },
          "indices": 44,
          "material": 1,
          "mode": 4
        }
      ]
    },
    {
      "name": "Object_9",
      "primitives": [
        {
          "attributes": {
            "JOINTS_0": 139,
            "NORMAL": 46,
            "POSITION": 45,
            "TANGENT": 47,
            "TEXCOORD_0": 48,
            "TEXCOORD_1": 48,
            "TEXCOORD_2": 48,
            "TEXCOORD_3": 48,
            "WEIGHTS_0": 140
          },
          "indices": 49,
          "material": 1,
          "mode": 4
        }
      ]
    },
    {
      "name": "Object_10",
      "primitives": [
        {
          "attributes": {
            "JOINTS_0": 141,
            "NORMAL": 51,
            "POSITION": 50,
            "TANGENT": 52,
            "TEXCOORD_0": 53,
            "TEXCOORD_1": 53,
            "TEXCOORD_2": 53,
            "TEXCOORD_3": 53,
            "WEIGHTS_0": 142
          },
          "indices": 54,
          "material": 0,
          "mode": 4
        }
      ]
    },
    {
      "name": "Object_11",
      "primitives": [
        {
          "attributes": {
            "JOINTS_0": 143,
            "NORMAL": 56,
            "POSITION": 55,
            "TANGENT": 57,
            "TEXCOORD_0": 58,
            "TEXCOORD_1": 58,
            "TEXCOORD_2": 58,
            "TEXCOORD_3": 58,
            "WEIGHTS_0": 144
          },
          "indices": 59,
          "material": 0,
          "mode": 4
        }
      ]
    },
    {
      "name": "Object_12",
      "primitives": [
        {
          "attributes": {
            "JOINTS_0": 145,
            "NORMAL": 61,
            "POSITION": 60,
            "TANGENT": 62,
            "TEXCOORD_0": 63,
            "TEXCOORD_1": 63,
            "TEXCOORD_2": 63,
            "TEXCOORD_3": 63,
            "WEIGHTS_0": 146
          },
          "indices": 64,
          "material": 1,
          "mode": 4
        }
      ]
    },
    {
      "name": "Object_13",
      "primitives": [
        {
          "attributes": {
            "JOINTS_0": 147,
            "NORMAL": 66,
            "POSITION": 65,
            "TANGENT": 67,
            "TEXCOORD_0": 68,
            "TEXCOORD_1": 68,
            "TEXCOORD_2": 68,
            "TEXCOORD_3": 68,
            "WEIGHTS_0": 148
          },
          "indices": 69,
          "material": 0,
          "mode": 4
        }
      ]
    },
    {
      "name": "Object_14",
      "primitives": [
        {
          "attributes": {
            "NORMAL": 71,
            "POSITION": 70,
            "TANGENT": 72,
            "TEXCOORD_0": 73,
            "TEXCOORD_1": 74,
            "TEXCOORD_2": 75,
            "TEXCOORD_3": 76
          },
          "indices": 77,
          "material": 1,
          "mode": 4
        }
      ]
    },
    {
      "name": "Object_15",
      "primitives": [
        {
          "attributes": {
            "NORMAL": 79,
            "POSITION": 78,
            "TANGENT": 80,
            "TEXCOORD_0": 81,
            "TEXCOORD_1": 82,
            "TEXCOORD_2": 83,
            "TEXCOORD_3": 84
          },
          "indices": 85,
          "material": 1,
          "mode": 4
        }
      ]
    },
    {
      "name": "Object_16",
      "primitives": [
        {
          "attributes": {
            "NORMAL": 87,
            "POSITION": 86,
            "TANGENT": 88,
            "TEXCOORD_0": 89,
            "TEXCOORD_1": 90,
            "TEXCOORD_2": 91,
            "TEXCOORD_3": 92
          },
          "indices": 93,
          "material": 1,
          "mode": 4
        }
      ]
    },
    {
      "name": "Object_17",
      "primitives": [
        {
          "attributes": {
            "NORMAL": 95,
            "POSITION": 94,
            "TANGENT": 96,
            "TEXCOORD_0": 97,
            "TEXCOORD_1": 98,
            "TEXCOORD_2": 99,
            "TEXCOORD_3": 100
          },
          "indices": 101,
          "material": 1,
          "mode": 4
        }
      ]
    },
    {
      "name": "Object_18",
      "primitives": [
        {
          "attributes": {
            "NORMAL": 103,
            "POSITION": 102,
            "TEXCOORD_0": 104,
            "TEXCOORD_1": 105
          },
          "indices": 106,
          "material": 2,
          "mode": 4
        }
      ]
    },
    {
      "name": "Object_19",
      "primitives": [
        {
          "attributes": {
            "NORMAL": 108,
            "POSITION": 107,
            "TEXCOORD_0": 109,
            "TEXCOORD_1": 110
          },
          "indices": 111,
          "material": 2,
          "mode": 4
        }
      ]
    },
    {
      "name": "Object_20",
      "primitives": [
        {
          "attributes": {
            "NORMAL": 113,
            "POSITION": 112,
            "TEXCOORD_0": 114
          },
          "indices": 115,
          "material": 3,
          "mode": 4
        }
      ]
    },
    {
      "name": "Object_21",
      "primitives": [
        {
          "attributes": {
            "NORMAL": 117,
            "POSITION": 116,
            "TEXCOORD_0": 118
          },
          "indices": 119,
          "material": 4,
          "mode": 4
        }
      ]
    }
  ],
  "nodes": [
    {
      "children": [
        1
      ],
      "matrix": [
        1.0,
        0.0,
        0.0,
        0.0,
        0.0,
        2.220446049250313e-16,
        -1.0,
        0.0,
        0.0,
        1.0,
        2.220446049250313e-16,
        0.0,
        0.0,
        0.0,
        0.0,
        1.0
      ],
      "name": "Sketchfab_model"
    },
    {
      "children": [
        2
      ],
      "name": "root"
    },
    {
      "children": [
        3,
        98,
        100
      ],
      "matrix": [
        1.0,
        0.0,
        0.0,
        0.0,
        0.0,
        2.220446049250313e-16,
        1.0,
        0.0,
        0.0,
        -1.0,
        2.220446049250313e-16,
        0.0,
        0.0,
        0.0,
        0.0,
        1.0
      ],
      "name": "GLTF_SceneRootNode"
    },
    {
      "children": [
        4
      ],
      "matrix": [
        3.6143388748168945,
        0.0,
        0.0,
        0.0,
        0.0,
        3.6143388748168945,
        0.0,
        0.0,
        0.0,
        0.0,
        3.6143388748168945,
        0.0,
        0.0,
        -17.12555503845215,
        0.0,
        1.0
      ],
      "name": "Armature_72"
    },
    {
      "children": [
        5,
        7,
        9,
        11,
        13,
        15,
        17,
        19,
        21,
        23,
        25,
        27,
        29,
        31,
        33,
        6,
        8,
        10,
        12,
        14,
        16,
        18,
        20,
        22,
        24,
        26,
        28,
        30,
        32
      ],
      "name": "GLTF_created_0"
    },
    {
      "children": [
        34
      ],
      "name": "GLTF_created_0_rootJoint"
    },
    {
      "name": "Circle_58"
    },
    {
      "mesh": 0,
      "name": "Object_7",
      "skin": 0
    },
    {
      "name": "Cube_59"
    },
    {
      "mesh": 1,
      "name": "Object_9",
      "skin": 0
    },
    {
      "name": "Cube.001_60"
    },
    {
      "mesh": 2,
      "name": "Object_11",
      "skin": 0
    },
    {
      "name": "Cube.002_61"
    },
    {
      "mesh": 3,
      "name": "Object_13",
      "skin": 0
    },
    {
      "name": "Cube.003_62"
    },
    {
      "mesh": 4,
      "name": "Object_15",
      "skin": 0
    },
    {
      "name": "Cube.004_63"
    },
    {
      "mesh": 5,
      "name": "Object_17",
      "skin": 0
    },
    {
      "name": "Cube.006_64"
    },
    {
      "mesh": 6,
      "name": "Object_19",
      "skin": 0
    },
    {
      "name": "Cube.007_65"
    },
    {
      "mesh": 7,
      "name": "Object_21",
      "skin": 0
    },
    {
      "name": "Cube.008_66"
    },
    {
      "mesh": 8,
      "name": "Object_23",
      "skin": 0
    },
    {
      "name": "Cube.009_67"
    },
    {
      "mesh": 9,
      "name": "Object_25",
      "skin": 0
    },
    {
      "name": "Cube.010_68"
    },
    {
      "mesh": 10,
      "name": "Object_27",
      "skin": 0
    },
    {
      "name": "Cube.011_69"
    },
    {
      "mesh": 11,
      "name": "Object_29",
      "skin": 0
    },
    {
      "name": "Cube.014_70"
    },
    {
      "mesh": 12,
      "name": "Object_31",
      "skin": 0
    },
    {
      "name": "Cube.016_71"
    },
    {
      "mesh": 13,
      "name": "Object_33",
      "skin": 0
    },
    {
      "children": [
        35,
        90,
        92,
        93,
        94,
        96,
        97
      ],
      "name": "Bone_57"
    },
    {
      "children": [
        36,
        86,
        88
      ],
      "name": "Bone.002_48",
      "translation": [
        0.0,
        2.43904972076416,
        0.0
      ]
    },
    {
      "children": [
        37,
        56,
        71
      ],
      "name": "Bone.003_43",
      "rotation": [
        -0.05019364506006241,
        1.1905896712960384e-07,
        -5.983544770771232e-09,
        0.9987395405769348
      ],
      "scale": [
        1.0,
        1.0,
        1.0000001192092896
      ],
      "translation": [
        -7.105427357601002e-15,
        1.3638412952423096,
        1.6855290311189161e-21
      ]
    },
    {
      "children": [
        38
      ],
      "name": "Bone.004_12",
      "rotation": [
        0.10672856122255325,
        7.838537761581388e-14,
        2.544606481080791e-08,
        0.9942882061004639
      ],
      "scale": [
        1.0,
        1.0,
        1.0000001192092896
      ],
      "translation": [
        7.855729989311808e-15,
        1.3953557014465332,
        -1.3543250076963886e-08
      ]
    },
    {
      "children": [
        39,
        41,
        43,
        45,
        47,
        48,
        49,
        50,
        53
      ],
      "name": "Bone.005_11",
      "rotation": [
        0.09665427356958389,
        1.1865100901786718e-07,
        3.4566241424727195e-08,
        0.9953180551528931
      ],
      "scale": [
        1.0,
        0.9999999403953552,
        1.0
      ],
      "translation": [
        5.0420845748360907e-14,
        0.44494152069091797,
        4.470348358154297e-08
      ]
    },
    {
      "children": [
        40
      ],
      "matrix": [
        0.27667573094364833,
        8.327186914998724e-15,
        1.3192922025528283e-07,
        0.0,
        3.987479881327735e-08,
        0.26373583940445017,
        -0.08362356180628072,
        0.0,
        -1.2575897686383726e-07,
        0.08362354379115168,
        0.26373578258744684,
        0.0,
        -1.6969585203696624e-07,
        -0.826148271560669,
        0.35587823390960693,
        1.0
      ],
      "name": "Circle.001_7"
    },
    {
      "mesh": 14,
      "name": "Object_40"
    },
    {
      "children": [
        42
      ],
      "matrix": [
        0.27667573094364833,
        8.327186914998724e-15,
        1.3192922025528283e-07,
        0.0,
        3.987479881327735e-08,
        0.26373583940445017,
        -0.08362356180628072,
        0.0,
        -1.2575897686383726e-07,
        0.08362354379115168,
        0.26373578258744684,
        0.0,
        -1.6969585203696624e-07,
        -0.826148271560669,
        0.35587823390960693,
        1.0
      ],
      "name": "Cube.005_8"
    },
    {
      "mesh": 15,
      "name": "Object_42"
    },
    {
      "children": [
        44
      ],
      "matrix": [
        0.27667573094364833,
        8.327186914998724e-15,
        1.3192922025528283e-07,
        0.0,
        3.987479881327735e-08,
        0.26373583940445017,
        -0.08362356180628072,
        0.0,
        -1.2575897686383726e-07,
        0.08362354379115168,
        0.26373578258744684,
        0.0,
        -1.6969585203696624e-07,
        -0.826148271560669,
        0.35587823390960693,
        1.0
      ],
      "name": "Cube.012_9"
    },
    {
      "mesh": 16,
      "name": "Object_44"
    },
    {
      "children": [
        46
      ],
      "matrix": [
        0.27667573094364833,
        8.327186914998724e-15,
        1.3192922025528283e-07,
        0.0,
        3.987479881327735e-08,
        0.26373583940445017,
        -0.08362356180628072,
        0.0,
        -1.2575897686383726e-07,
        0.08362354379115168,
        0.26373578258744684,
        0.0,
        -1.6969585203696624e-07,
        -0.826148271560669,
        0.35587823390960693,
        1.0
      ],
      "name": "Cube.013_10"
    },
    {
      "mesh": 17,
      "name": "Object_46"
    },
    {
      "name": "Bone.007_0",
      "rotation": [
        0.8140047192573547,
        4.893053532338022e-14,
        3.881475834077719e-07,
        0.5808583498001099
      ],
      "translation": [
        -2.6990369406121317e-07,
        0.06845344603061676,
        0.5660290122032166
      ]
    },
    {
      "name": "ear_R_1",
      "rotation": [
        -0.026562092825770378,
        0.10279662907123566,
        -0.5118066668510437,
        0.8525146842002869
      ],
      "scale": [
        0.9999999403953552,
        1.0,
        0.9999999403953552
      ],
      "translation": [
        0.6771131753921509,
        0.995424211025238,
        0.06596314162015915
      ]
    },
    {
      "name": "ear_L_2",
      "rotation": [
        -0.02656235545873642,
        -0.10279704630374908,
        0.5118066668510437,
        0.8525146245956421
      ],
      "scale": [
        0.9999999403953552,
        1.0,
        1.0
      ],
      "translation": [
        -0.677112877368927,
        0.9954244494438171,
        0.0659623071551323
      ]
    },
    {
      "children": [
        51
      ],
      "name": "eye_R_4",
      "rotation": [
        0.6288203001022339,
        1.3927822237747023e-06,
        1.4213999293133384e-06,
        0.7775506973266602
      ],
      "scale": [
        1.0,
        0.9999999403953552,
        0.9999999403953552
      ],
      "translation": [
        0.3397371768951416,
        0.7511684894561768,
        0.628692090511322
      ]
    },
    {
      "children": [
        52
      ],
      "matrix": [
        0.27667573094140707,
        2.071475102585176e-09,
        1.1214408351898637e-06,
        0.0,
        1.1164423681406324e-06,
        -0.026608115701013513,
        -0.27539338725593704,
        0.0,
        1.0578792199870644e-07,
        0.2753933279298315,
        -0.02660810996858113,
        0.0,
        -0.3397435247898102,
        -0.5967065095901489,
        1.4853599071502686,
        1.0
      ],
      "name": "Sphere_3"
    },
    {
      "mesh": 18,
      "name": "Object_52"
    },
    {
      "children": [
        54
      ],
      "name": "eye_L_6",
      "rotation": [
        0.6288203001022339,
        -1.75885463704617e-06,
        -1.1273897371211206e-06,
        0.7775506973266602
      ],
      "scale": [
        1.0,
        0.9999999403953552,
        0.9999999403953552
      ],
      "translation": [
        -0.33973780274391174,
        0.7511684894561768,
        0.6286917328834534
      ]
    },
    {
      "children": [
        55
      ],
      "matrix": [
        0.276675730941407,
        2.0716066641899937e-09,
        -1.121451958806241e-06,
        0.0,
        -1.1160550153814363e-06,
        -0.026608069327000185,
        -0.2753933917365256,
        0.0,
        -1.0991268224857966e-07,
        0.27539333241041764,
        -0.02660806359456102,
        0.0,
        0.3397435247898102,
        -0.5967064499855042,
        1.4853599071502686,
        1.0
      ],
      "name": "Sphere.001_5"
    },
    {
      "mesh": 19,
      "name": "Object_55"
    },
    {
      "children": [
        57
      ],
      "name": "arm_R_27",
      "rotation": [
        -0.06643901765346527,
        0.03185300529003143,
        -0.9218862652778625,
        0.3803904950618744
      ],
      "scale": [
        1.0000001192092896,
        1.0,
        1.0
      ],
      "translation": [
        0.606230616569519,
        1.0744348764419556,
        -0.03233852982521057
      ]
    },
    {
      "children": [
        58
      ],
      "name": "arm_R.001_26",
      "rotation": [
        0.14386723935604095,
        -0.004633182194083929,
        -0.04732900857925415,
        0.98845374584198
      ],
      "scale": [
        0.9999999403953552,
        1.0000001192092896,
        1.0
      ],
      "translation": [
        6.616613745791255e-07,
        0.8250250816345215,
        5.194950247755514e-08
      ]
    },
    {
      "children": [
        59,
        62,
        65,
        68
      ],
      "name": "arm_R.002_25",
      "rotation": [
        0.05087098479270935,
        -0.010788739658892155,
        -0.057351697236299515,
        0.9969987869262695
      ],
      "scale": [
        1.0,
        0.9999998807907104,
        1.0
      ],
      "translation": [
        -3.033856046386063e-07,
        0.9525376558303833,
        -1.6902258437312412e-07
      ]
    },
    {
      "children": [
        60
      ],
      "name": "arm_R.003_15",
      "rotation": [
        0.07694346457719803,
        -0.0018267398700118065,
        0.0077911061234772205,
        0.9970033764839172
      ],
      "scale": [
        0.9999999403953552,
        0.9999998211860657,
        0.9999999403953552
      ],
      "translation": [
        -0.00012003444862784818,
        0.6419675350189209,
        0.22664682567119598
      ]
    },
    {
      "children": [
        61
      ],
      "name": "arm_R.012_14",
      "rotation": [
        -0.06021830439567566,
        -1.5193901958809874e-07,
        -0.006511971820145845,
        0.9981639981269836
      ],
      "scale": [
        0.9999997615814209,
        0.9999998807907104,
        0.9999998211860657
      ],
      "translation": [
        -3.3472055349648144e-08,
        0.15235655009746552,
        -2.435786825571995e-07
      ]
    },
    {
      "name": "arm_R.009_13",
      "rotation": [
        0.06021849438548088,
        1.2413747185746615e-07,
        0.006511828862130642,
        0.9981639981269836
      ],
      "scale": [
        0.9999999403953552,
        1.0,
        1.0
      ],
      "translation": [
        1.8934369450107624e-07,
        0.28549203276634216,
        1.6228709043275558e-08
      ]
    },
    {
      "children": [
        63
      ],
      "name": "arm_R.004_18",
      "rotation": [
        -0.06787058711051941,
        -0.0014174454845488071,
        -0.0074888067319989204,
        0.9976650476455688
      ],
      "scale": [
        0.9999999403953552,
        0.9999999403953552,
        0.9999999403953552
      ],
      "translation": [
        0.02137151174247265,
        0.6733592748641968,
        -0.026397673413157463
      ]
    },
    {
      "children": [
        64
      ],
      "name": "arm_R.013_17",
      "rotation": [
        0.007968596182763577,
        1.6846980770424125e-06,
        0.0005554286763072014,
        0.9999681115150452
      ],
      "translation": [
        3.366148249028811e-08,
        0.15235596895217896,
        6.514029138315891e-08
      ]
    },
    {
      "name": "arm_R.010_16",
      "rotation": [
        -0.007968463003635406,
        -8.006201142052305e-07,
        -0.0005549388588406146,
        0.9999681115150452
      ],
      "scale": [
        1.0,
        1.0000001192092896,
        1.0
      ],
      "translation": [
        6.745212743908269e-08,
        0.28782716393470764,
        -8.020511899076155e-08
      ]
    },
    {
      "children": [
        66
      ],
      "name": "arm_R.005_21",
      "rotation": [
        -0.12356317043304443,
        0.0013616784708574414,
        0.008190873079001904,
        0.9923020005226135
      ],
      "scale": [
        1.0,
        0.9999998807907104,
        1.0
      ],
      "translation": [
        0.05727807804942131,
        0.5646387338638306,
        -0.29505324363708496
      ]
    },
    {
      "children": [
        67
      ],
      "name": "arm_R.014_20",
      "rotation": [
        0.03430844470858574,
        6.695287879665557e-07,
        -0.006853815633803606,
        0.999387800693512
      ],
      "scale": [
        1.0000001192092896,
        1.0,
        1.0
      ],
      "translation": [
        1.1620716833249389e-07,
        0.15235592424869537,
        -7.136438284760516e-08
      ]
    },
    {
      "name": "arm_R.011_19",
      "rotation": [
        -0.03430839627981186,
        -7.005069733168057e-07,
        0.00685385474935174,
        0.999387800693512
      ],
      "scale": [
        0.9999999403953552,
        0.9999999403953552,
        1.0
      ],
      "translation": [
        -3.7561682120212936e-07,
        0.28707554936408997,
        -6.9442144479126e-08
      ]
    },
    {
      "children": [
        69
      ],
      "name": "arm_R.006_24",
      "rotation": [
        0.4742325246334076,
        -0.10929777473211288,
        -0.061376117169857025,
        0.8714301586151123
      ],
      "scale": [
        1.0000001192092896,
        0.9999999403953552,
        1.0000001192092896
      ],
      "translation": [
        0.07504868507385254,
        0.32416853308677673,
        0.23056547343730927
      ]
    },
    {
      "children": [
        70
      ],
      "name": "arm_R.008_23",
      "rotation": [
        -0.1958092898130417,
        -0.0035180128179490566,
        -0.18540579080581665,
        0.9629491567611694
      ],
      "scale": [
        1.0000001192092896,
        1.0,
        1.0
      ],
      "translation": [
        1.9769665016156068e-07,
        0.21029169857501984,
        -2.568407921899052e-07
      ]
    },
    {
      "name": "arm_R.007_22",
      "rotation": [
        -0.17145103216171265,
        -0.04078356921672821,
        -0.12862727046012878,
        0.9759079217910767
      ],
      "scale": [
        0.9999998211860657,
        0.9999998807907104,
        1.0000001192092896
      ],
      "translation": [
        6.017298233018664e-07,
        0.28116950392723083,
        3.696889336879394e-07
      ]
    },
    {
      "children": [
        72
      ],
      "name": "arm_L_42",
      "rotation": [
        -0.06643921136856079,
        -0.03185310959815979,
        0.9218862652778625,
        0.3803904950618744
      ],
      "scale": [
        1.000000238418579,
        1.0000003576278687,
        0.9999999403953552
      ],
      "translation": [
        -0.6062309741973877,
        1.0744355916976929,
        -0.03233885020017624
      ]
    },
    {
      "children": [
        73
      ],
      "name": "arm_L.001_41",
      "rotation": [
        0.14386723935604095,
        0.0046331752091646194,
        0.04732906073331833,
        0.9884536862373352
      ],
      "scale": [
        0.9999999403953552,
        1.0,
        0.9999998807907104
      ],
      "translation": [
        2.2574197089397785e-07,
        0.8250250816345215,
        3.811139492881921e-08
      ]
    },
    {
      "children": [
        74,
        77,
        80,
        83
      ],
      "name": "arm_L.002_40",
      "rotation": [
        0.05087096244096756,
        0.010788762010633945,
        0.057351671159267426,
        0.9969987869262695
      ],
      "scale": [
        0.9999999403953552,
        1.0,
        0.9999998807907104
      ],
      "translation": [
        4.6124338837216783e-07,
        0.9525378346443176,
        5.586679208136047e-08
      ]
    },
    {
      "children": [
        75
      ],
      "name": "arm_L.003_30",
      "rotation": [
        0.07694361358880997,
        0.0018268602434545755,
        -0.007791005540639162,
        0.9970033168792725
      ],
      "translation": [
        0.00012026473268633708,
        0.6419674754142761,
        0.22664710879325867
      ]
    },
    {
      "children": [
        76
      ],
      "name": "arm_L.012_29",
      "rotation": [
        -0.06021837517619133,
        1.5759555438421557e-08,
        0.0065119205974042416,
        0.9981639981269836
      ],
      "scale": [
        0.9999998807907104,
        0.9999998211860657,
        0.9999998211860657
      ],
      "translation": [
        -1.5876653947088926e-07,
        0.15235662460327148,
        -5.111155587655958e-08
      ]
    },
    {
      "name": "arm_L.009_28",
      "rotation": [
        0.060218553990125656,
        -1.4189431851718837e-07,
        -0.006511928979307413,
        0.9981639981269836
      ],
      "translation": [
        -4.6036609546717955e-07,
        0.28549236059188843,
        -7.488917930231764e-08
      ]
    },
    {
      "children": [
        78
      ],
      "name": "arm_L.004_33",
      "rotation": [
        -0.06787048280239105,
        0.0014172772644087672,
        0.00748888636007905,
        0.9976650476455688
      ],
      "scale": [
        1.0,
        1.0000001192092896,
        0.9999999403953552
      ],
      "translation": [
        -0.021371634677052498,
        0.6733599901199341,
        -0.02639779821038246
      ]
    },
    {
      "children": [
        79
      ],
      "name": "arm_L.013_32",
      "rotation": [
        0.007968484424054623,
        -1.5213690858217888e-06,
        -0.0005554854869842529,
        0.9999681115150452
      ],
      "scale": [
        1.0000001192092896,
        1.000000238418579,
        0.9999999403953552
      ],
      "translation": [
        -1.3770473117347137e-07,
        0.15235662460327148,
        1.527588864291829e-07
      ]
    },
    {
      "name": "arm_L.010_31",
      "rotation": [
        -0.007968460209667683,
        7.647569191249204e-07,
        0.0005549314082600176,
        0.9999681115150452
      ],
      "scale": [
        1.0,
        1.0000001192092896,
        0.9999999403953552
      ],
      "translation": [
        3.1305654601965216e-07,
        0.28782713413238525,
        -3.9080902070054435e-08
      ]
    },
    {
      "children": [
        81
      ],
      "name": "arm_L.005_36",
      "rotation": [
        -0.12356306612491608,
        -0.001361696282401681,
        -0.008190857246518135,
        0.9923020005226135
      ],
      "scale": [
        0.9999999403953552,
        0.9999998211860657,
        1.0
      ],
      "translation": [
        -0.05727806314826012,
        0.5646394491195679,
        -0.29505351185798645
      ]
    },
    {
      "children": [
        82
      ],
      "name": "arm_L.014_35",
      "rotation": [
        0.03430831804871559,
        -6.951995601411909e-07,
        0.006853785365819931,
        0.999387800693512
      ],
      "scale": [
        1.0000001192092896,
        1.0000001192092896,
        1.0000001192092896
      ],
      "translation": [
        5.796084945330904e-09,
        0.15235617756843567,
        -6.39137738289719e-08
      ]
    },
    {
      "name": "arm_L.011_34",
      "rotation": [
        -0.03430835157632828,
        7.122065994735749e-07,
        -0.006853828672319651,
        0.999387800693512
      ],
      "scale": [
        0.9999999403953552,
        1.0000001192092896,
        0.9999998807907104
      ],
      "translation": [
        -8.917739080516185e-08,
        0.28707557916641235,
        -4.397931974153835e-08
      ]
    },
    {
      "children": [
        84
      ],
      "name": "arm_L.006_39",
      "rotation": [
        0.47423255443573,
        0.10929756611585617,
        0.06137608364224434,
        0.8714301586151123
      ],
      "scale": [
        1.000000238418579,
        1.0,
        1.0
      ],
      "translation": [
        -0.07504885643720627,
        0.3241688013076782,
        0.23056542873382568
      ]
    },
    {
      "children": [
        85
      ],
      "name": "arm_L.008_38",
      "rotation": [
        -0.1958092451095581,
        0.0035181983839720488,
        0.18540571630001068,
        0.9629491567611694
      ],
      "scale": [
        0.9999999403953552,
        1.0000001192092896,
        0.9999998211860657
      ],
      "translation": [
        1.1723641080152447e-07,
        0.21029160916805267,
        -2.3087214628958463e-07
      ]
    },
    {
      "name": "arm_L.007_37",
      "rotation": [
        -0.17145106196403503,
        0.040783509612083435,
        0.12862728536128998,
        0.9759079217910767
      ],
      "scale": [
        1.0000001192092896,
        1.0,
        1.0000001192092896
      ],
      "translation": [
        2.4539235710108187e-07,
        0.2811692953109741,
        -1.5163503519488586e-07
      ]
    },
    {
      "children": [
        87
      ],
      "name": "legs_R_45",
      "rotation": [
        0.0014695337740704417,
        -0.029473885893821716,
        -0.9995380640029907,
        0.0072702993638813496
      ],
      "scale": [
        1.0000004768371582,
        0.9999994039535522,
        1.0000094175338745
      ],
      "translation": [
        0.7017324566841125,
        0.23327302932739258,
        -1.6580560213697026e-07
      ]
    },
    {
      "name": "legs_R.001_44",
      "rotation": [
        -0.10220162570476532,
        -4.664044354285579e-06,
        -0.0015767168952152133,
        0.9947624802589417
      ],
      "scale": [
        1.0000001192092896,
        0.9999999403953552,
        0.9999997615814209
      ],
      "translation": [
        -2.0797558875074174e-07,
        0.9921622276306152,
        -2.4276221921581964e-08
      ]
    },
    {
      "children": [
        89
      ],
      "name": "legs_L_47",
      "rotation": [
        0.0014695496065542102,
        0.029473884031176567,
        0.9995380640029907,
        0.007270298432558775
      ],
      "scale": [
        1.0000004768371582,
        0.9999994039535522,
        1.0000094175338745
      ],
      "translation": [
        -0.7017324566841125,
        0.23327302932739258,
        -1.6580560213697026e-07
      ]
    },
    {
      "name": "legs_L.001_46",
      "rotation": [
        -0.10220162570476532,
        4.664051630243193e-06,
        0.0015767168952152133,
        0.9947624802589417
      ],
      "scale": [
        1.0000001192092896,
        0.9999999403953552,
        0.9999997615814209
      ],
      "translation": [
        1.4799717007463187e-07,
        0.9921623468399048,
        -4.8496325177893596e-08
      ]
    },
    {
      "children": [
        91
      ],
      "name": "legs_R.002_50",
      "rotation": [
        0.004026864189654589,
        -0.5916739106178284,
        -0.8061619400978088,
        0.0029554732609540224
      ],
      "translation": [
        0.7309711575508118,
        0.4209318459033966,
        -0.12670214474201202
      ]
    },
    {
      "name": "legs_R.003_49",
      "rotation": [
        0.13311125338077545,
        -4.111124218830753e-10,
        0.0013298422563821077,
        0.9911002516746521
      ],
      "scale": [
        1.0000001192092896,
        0.9999999403953552,
        1.0
      ],
      "translation": [
        1.397193472030267e-09,
        0.7151409387588501,
        1.3948736388158522e-08
      ]
    },
    {
      "name": "legs_R.004_51",
      "rotation": [
        0.004026849754154682,
        -0.5916739106178284,
        -0.8061619400978088,
        0.002955454168841243
      ],
      "scale": [
        0.9999998211860657,
        0.9999997019767761,
        0.9999998807907104
      ],
      "translation": [
        0.7309711575508118,
        0.42093178629875183,
        -0.12670211493968964
      ]
    },
    {
      "name": "legs_R.005_52",
      "rotation": [
        0.00020522932754829526,
        -0.026578208431601524,
        -0.9996195435523987,
        0.007375689223408699
      ],
      "scale": [
        1.0000001192092896,
        0.9999997615814209,
        1.000002145767212
      ],
      "translation": [
        0.7017323970794678,
        2.2603726387023926,
        2.021131992340088
      ]
    },
    {
      "children": [
        95
      ],
      "name": "legs_L.002_54",
      "rotation": [
        0.004026864189654589,
        0.5916739106178284,
        0.8061619400978088,
        0.0029554732609540224
      ],
      "translation": [
        -0.7309711575508118,
        0.4209318459033966,
        -0.12670214474201202
      ]
    },
    {
      "name": "legs_L.003_53",
      "rotation": [
        0.13311125338077545,
        4.111124218830753e-10,
        -0.0013298422563821077,
        0.9911002516746521
      ],
      "scale": [
        1.0000001192092896,
        0.9999999403953552,
        1.0
      ],
      "translation": [
        -1.397193472030267e-09,
        0.7151409387588501,
        1.3948736388158522e-08
      ]
    },
    {
      "name": "legs_L.004_55",
      "rotation": [
        0.004026849754154682,
        0.5916739106178284,
        0.8061619400978088,
        0.002955454168841243
      ],
      "scale": [
        0.9999998211860657,
        0.9999997019767761,
        0.9999998807907104
      ],
      "translation": [
        -0.7309711575508118,
        0.42093178629875183,
        -0.12670211493968964
      ]
    },
    {
      "name": "legs_L.005_56",
      "rotation": [
        0.00020522932754829526,
        0.026578208431601524,
        0.9996195435523987,
        0.007375689223408699
      ],
      "scale": [
        1.0000001192092896,
        0.9999997615814209,
        1.000002145767212
      ],
      "translation": [
        -0.7017323970794678,
        2.2603726387023926,
        2.021131992340088
      ]
    },
    {
      "children": [
        99
      ],
      "matrix": [
        35.11878967285156,
        0.0,
        0.0,
        0.0,
        0.0,
        35.11878967285156,
        0.0,
        0.0,
        0.0,
        0.0,
        35.11878967285156,
        0.0,
        -0.5517539978027344,
        -5.421280384063721,
        -10.501716613769531,
        1.0
      ],
      "name": "Cube.015_74"
    },
    {
      "mesh": 20,
      "name": "Object_99"
    },
    {
      "children": [
        101
      ],
      "matrix": [
        -31.154722213743458,
        -0.0,
        -1.0151497364540901e-05,
        0.0,
        0.0,
        31.154722213745117,
        -0.0,
        0.0,
        1.0151497364540901e-05,
        0.0,
        -31.154722213743458,
        0.0,
        0.9288353323936462,
        -17.689180374145508,
        -11.018031120300293,
        1.0
      ],
      "name": "Plane.003_75"
    },
    {
      "mesh": 21,
      "name": "Object_101"
    }
  ],
  "samplers": [
    {
      "magFilter": 9729,
      "minFilter": 9987,
      "wrapS": 10497,
      "wrapT": 10497
    }
  ],
  "scene": 0,
  "scenes": [
    {
      "name": "Sketchfab_Scene",
      "nodes": [
        0
      ]
    }
  ],
  "skins": [
    {
      "inverseBindMatrices": 120,
      "joints": [
        5,
        34,
        35,
        36,
        37,
        38,
        47,
        48,
        49,
        50,
        53,
        56,
        57,
        58,
        59,
        60,
        61,
        62,
        63,
        64,
        65,
        66,
        67,
        68,
        69,
        70,
        71,
        72,
        73,
        74,
        75,
        76,
        77,
        78,
        79,
        80,
        81,
        82,
        83,
        84,
        85,
        86,
        87,
        88,
        89,
        90,
        91,
        92,
        93,
        94,
        95,
        96,
        97
      ],
      "skeleton": 5
    }
  ],
  "textures": [
    {
      "sampler": 0,
      "source": 0
    },
    {
      "sampler": 0,
      "source": 1
    },
    {
      "sampler": 0,
      "source": 2
    },
    {
      "sampler": 0,
      "source": 3
    },
    {
      "sampler": 0,
      "source": 4
    },
    {
      "sampler": 0,
      "source": 5
    },
    {
      "sampler": 0,
      "source": 6
    },
    {
      "sampler": 0,
      "source": 7
    },
    {
      "sampler": 0,
      "source": 8
    }
  ]
}
